<?xml version="1.0" encoding="utf-8"?>
<!-- Generator: Adobe Illustrator 26.0.1, SVG Export Plug-In . SVG Version: 6.00 Build 0)  -->
<svg version="1.1" id="Layer_1" xmlns="http://www.w3.org/2000/svg" xmlns:xlink="http://www.w3.org/1999/xlink" x="0px" y="0px"
	 viewBox="0 0 72 72" style="enable-background:new 0 0 72 72;" xml:space="preserve">
<style type="text/css">
	.st0{fill:#818F7A;}
	.st1{fill:#EADEB8;}
	.st2{fill:#CA855C;}
</style>
<path class="st0" d="M19.2,31.7C12.7,31,6.7,32.8,2,36.4c-1.3,1-2,2.4-2,4V63c0,5,4,9,9,9h22.6c1.6,0,3.1-0.8,4-2
	c3.5-4.7,5.4-10.7,4.7-17.2C39.1,41.8,30.2,32.9,19.2,31.7z"/>
<circle class="st1" cx="14" cy="14" r="14"/>
<g>
	<path class="st2" d="M64,47.7c-9.9,0-18.9-3.6-25.9-9.6c6,7,9.6,16,9.6,25.9c0,2.7-0.3,5.4-0.8,8H63c5,0,9-4,9-9V46.9
		C69.4,47.4,66.7,47.7,64,47.7z"/>
</g>
<path class="st0" d="M31.7,19.2c1.2,11,10.1,19.9,21.1,21.1c6.5,0.7,12.5-1.1,17.2-4.7c1.3-1,2-2.4,2-4V9c0-5-4-9-9-9H40.4
	c-1.6,0-3.1,0.8-4,2C32.8,6.7,31,12.7,31.7,19.2z"/>
</svg>
