<?xml version="1.0" encoding="utf-8"?>
<!-- Generator: Adobe Illustrator 26.0.1, SVG Export Plug-In . SVG Version: 6.00 Build 0)  -->
<svg version="1.1" id="Layer_1" xmlns="http://www.w3.org/2000/svg" xmlns:xlink="http://www.w3.org/1999/xlink" x="0px" y="0px"
	 viewBox="0 0 144 144" style="enable-background:new 0 0 144 144;" xml:space="preserve">
<style type="text/css">
	.st0{fill:#FCF3ED;}
	.st1{fill:#D9BCAD;}
	.st2{fill:#818F7A;}
	.st3{fill:#453A51;}
	.st4{fill:#FFFFFF;}
</style>
<path class="st0" d="M142.8,10.7c0.8-1.3,1.3-2.7,1.2-3.3s-0.7-1.9-1.1-1.7c-0.4,0.2-1.4,0.4-1.4-0.1s-0.4-1.8-0.9-1.6
	c-0.5,0.2-1.9,0.8-2.1,1.2c-0.2,0.3-0.9,1.5-1.2,1.7s-1,0.9-1.1,0.8s-0.2-0.9,0.2-1.5c0,0,0,0,0.3-0.6c0.2-0.3,0.2-0.3,0.2-0.3
	c0.2-0.3,0.2-0.7,0-0.9c-0.2-0.1-1-0.5-1.3-0.4s-1.4-0.4-1.5-1.1c-0.2-0.8-1-2.7-1.5-2.4s-1.7,0.6-1.9,0.3c-0.1-0.3-0.8-1-1.3-0.7
	c-0.5,0.2-2.1,1.7-2.5,2.8c-0.4,1-1.7,4.7-2.2,5.7c0,0,0,0-0.6,0.7c-0.3,0.3-0.3,0.3-0.3,0.3c-0.7,0-1.5,0.3-1.7,0.6
	c0,0,0,0-0.2,0.3c-0.5,0.9-0.5,0.9-0.5,0.9c-0.6,1-0.9,2.1-0.7,2.4c0.2,0.3-0.3,1.7-1,2.8s-4,1.9-4,0.7c0-1.2,0.1-4.2,0.5-4.1
	s1.2-0.1,1.5-0.6s1-2.1,0.9-2.4c-0.1-0.3-0.5-1.3-0.7-1.4c-0.2-0.1-0.8-0.8-0.9-1.1c-0.1-0.3-0.8-1.2-1.2-1.3
	c-0.5-0.1-2,0.4-2.4,1.4c-0.3,1-2.9,4-4.2,6.3c0,0,0,0-1.9,0.6c-2.8,0.9-2.8,0.9-2.8,0.9c-0.9,2.5-2.1,5.3-2.7,6.3c0,0,0,0-1.3-0.2
	C99,21.6,99,21.6,99,21.6c-0.6,1-1.2,2.2-1.3,2.8c-0.1,0.6-2-0.1-2.2-0.3c-0.2-0.1-0.9-0.2-1.1,0.1c-0.2,0.3-1.2,2.5-1.9,4
	c-0.7,1.5-4.7,3-4.7,2.6s-0.1-1.7-0.4-2.1c-0.3-0.3-0.4-2.2,0.3-3.5c0,0,0,0,0.6-1.1c0.5-0.9,0.5-0.9,0.5-0.9c0.6-1,1.1-2.4,1.3-3
	c0.1-0.6,0.5-2.7,0.7-3c0,0,0,0,0.2-0.3c0.4-0.6,0.4-0.6,0.4-0.6c0.4-0.7,0.6-1.5,0.5-1.8s-1.1-1.1-2.1-1c0,0,0,0-0.2,0.7
	c-0.3,1.1-0.3,2.4-0.6,3.5c-0.1,0.4-0.1,0.4-0.1,0.4c-0.5,0.3-1.1,0.2-1.3-0.3c-0.2-0.5,0-2.9,0.8-4.1c0,0,0,0,0.6-1.3
	c0.1-0.3,0.1-0.3,0.1-0.3c-0.4-0.6-1.4-0.1-2.1,1.3c0,0,0,0-0.7,1.2c-0.5,0.9-0.5,0.9-0.5,0.9c-0.6,1-0.9,2-0.7,2.3
	c0.2,0.2-0.4,1.7-1.2,3.2c-0.8,1.5-3.3,5.1-3.6,4.6c-0.3-0.5-1.9,0.1-3,2.2c0,0,0,0-1.1,1.9s-2.1,3.7-3.2,5.6
	c-0.5,0.9-0.5,0.9-0.5,0.9c-0.6,1-1.3,2.1-1.5,2.4c-0.3,0.3-1,0.9-1.1,0.8s-0.2-0.9,0.2-1.5c0,0,0,0,0.3-0.6
	c0.5-0.9,0.5-0.9,0.5-0.9c0.6-1,0.5-1.8-0.2-1.8c0,0,0,0-0.4,0.3c-0.6,0.5-0.6,0.5-0.6,0.5c-0.8,0.2-1.6,0.6-1.8,1
	c-0.2,0.3-0.9,1.9-1.2,2.7c-0.3,0.8-2.3,0.8-1.3-1c0,0,0,0,0.7-1.2c0.4-0.6,0.4-0.6,0.4-0.6c0.4-0.7,1.2-3,1.7-5.3
	c0.5-2.2,4.1-7.7,4.6-8.5c0.5-0.9,1.8-3.5,1.8-4s-0.2-1.7-0.5-1.7s-1.5,1-1.9,2.1c-0.5,1.1-2.9,3.3-2.9,2.9s-0.3-1.1-0.8-1.2
	s-2.2,0.5-2.7,1.6s-2.9,3.3-2.9,2.9s-0.7-0.7-1.5-0.3c0,0,0,0-0.6,0.6C60,25.8,60,25.8,60,25.8c-0.8,0.2-1.6,0.6-1.8,0.9
	s-0.9,1.9-1.2,2.7s-2.7,1.5-2.2,0.6s1.4-2.9,1.3-3.1c-0.2-0.1-1,0.5-1.3,1.7c0,0,0,0-1.8-1.3c-0.3-0.2-0.3-0.2-0.3-0.2
	c-0.6,0.3-2,2.1-3.2,4.2c0,0,0,0-1.1,1.8s-1.6,4.4-3.3,5.4c-2.6,1.5-3.3,4.2-5,6.4C38.5,47,38.5,47,38.5,47
	c-1.9,2.3-3.7,4.7-4.1,5.3c-0.4,0.7-2.6,3.5-4,4.9c0,0,0,0-1,1.4c-1.2,1.6-1.2,1.6-1.2,1.6c-1,2-2.3,3.6-2.9,3.6
	c-0.5-0.1-3.1,1.3-4.5,3.1c-1.5,1.8-5.7,8.1-6.7,9.4C13,77.6,9.9,81.9,9.5,83c-0.4,1-5,3.2-6.7,6.3c0,0,0,0-1.6,2.8
	C0.7,93,0.7,93,0.7,93c-0.6,1-0.9,2-0.7,2.1s1.1,0.6,1.6,0.6s1.9,0.7,2.1,0.8c0.2,0.1,0.8,0.4,1,0.3c0.1-0.1,0.6,1.2,0.4,3.2
	s-1.2,7.3-0.9,7.1c0.3-0.2,1.3-0.8,1.9-1c0.6-0.3,2.1-0.2,2.1,0.8s-3,2.5-3.5,3.9S1,114.5,1.1,115s1,1.8,1.7,1.3
	c0.6-0.5,2.6-2.2,2.8-2.7s1.5-1.4,2.1-1s2.5,2.9,1.6,3.6s-4.7,1.2-5.4,1.6s-1.7,2.5-1.5,2.9s1.2,1.2,1.6,0.8
	c0.4-0.4,1.6-1.3,1.7-1.2c0.1,0.1,0.2,0.6,0.1,0.9c-0.2,0.3-0.5,1.2-0.3,1.4c0.2,0.1,0.9,1.2,1,2c0.2,0.8,2.2,0.7,2.2,0.9
	c0,0,0,0.1,0,0.3c2-0.8,3.5,0.5,4.8,0.6c1.7,0.1-0.4,1.1-2.2,2.6s0.8,2.3,3,1.3c2.1-1,3.3-1.7,4.7-1.2s-1.6,1.4-3.7,2.6
	c-2.1,1.3-0.5,3.3,0.9,2.4c1.4-0.9,1.5-1.2,1.9,1.4c0.3,2.6,2.8,0.6,5.5-0.9s2.6,0.4,1.8,1.8c-0.8,1.4-4.8,4.3-1.9,4.4
	c3,0.1,7.5-2.2,22.2,1.9c7.1,2,14.7,0.8,21.2-1.3c0.7-0.5,1.5-1,2.3-1.5c0,0,0,0,3.9-2.5c1.3-0.8,1.3-0.8,1.3-0.8
	c0.7-0.6,1.4-1.3,2-1.9c2.5-1.2,4.6-2.7,7.1-4.2c3.4-2,7.1-3.4,10.8-4.8c7.7-3,14.6-7,21.7-11.1c5.8-3.3,10.4-7.3,11.1-14.4
	c0.3-3-0.2-6.1-1.5-8.9c-0.7-1.4-1.5-2.6-2.5-3.7c-1.3-1.5-2.9-2.2-2.6-4.3c0.3-1.6,2.2-3.7,2.8-5.2c0.6-1.4,1-2.8,1.2-4.3
	c0.4-3.6-0.3-7.7-2.4-10.8c-0.4-0.5-0.7-1-1.1-1.4c0.2-0.4,0.6-1.1,1.4-2.4c1.4-2.5,1.4-2.5,1.4-2.5c1.6-2.7,2.8-5.2,2.7-5.6
	c-0.1-0.3,1.2-5.4,2.6-10.8c0,0,0,0,3.4-3.6c0.1-0.1,0.1-0.1,0.1-0.1c0.5,0.2,1.6-0.7,2.3-2c0,0,0,0,0.7-1.2s0.7-1.2,0.7-1.2
	c0.8-1.4,1.7-3.5,2-4.7s1.9-4.7,2.3-5.5s0.1-3.8-0.2-4.5c0,0,0,0,0.2-0.5c0.3-1,0.9-1.8,1.4-2.6c0.2-0.3,0.2-0.3,0.2-0.3
	c0.2-0.3,0.1-1.3-0.2-2c0,0,0,0,0.2-0.4C142.8,10.7,142.8,10.7,142.8,10.7z"/>
<g>
	<path d="M92.7,34L92.7,34c-0.5-1-1-2-1.6-2.9V31c-0.1-0.2-0.3-0.4-0.4-0.6c-0.9-1.2-2.2-1.6-2.9-1.8c-0.2-0.8-0.7-2.1-2.3-3.3
		c-0.9-0.7-1.9-1.2-2.7-1.6c-3.2-1.6-6.9-2.4-10.7-2.4c-9.4,0-17.2,4.7-20.7,12.6c-1.7,3.7-1.5,9-1.3,14.2c0,1.5,0.1,2.9,0.1,4.2
		c0,9.5,2.4,16.9,7.3,22.6v17.5H87V75c4.9-5.7,7.3-13.1,7.3-22.6c0-1.3,0-2.7,0.1-4.2C94.3,43.1,94.4,37.8,92.7,34z"/>
	<g>
		<path class="st1" d="M58.3,91.9V74.6L58,74.3c-4.7-5.5-7-12.7-7-21.9c0-1.4,0-2.8-0.1-4.2c-0.2-5-0.3-10.2,1.3-13.7
			c3.4-7.5,10.8-12,19.8-12c3.7,0,7.2,0.8,10.3,2.3c0.8,0.4,1.7,0.9,2.6,1.5c1.4,1,1.8,2.1,1.9,2.7l0.1,0.6l0.6,0.1
			c0.6,0.1,1.6,0.5,2.4,1.4c0.1,0.2,0.2,0.3,0.4,0.5l0.1,0.1c0.6,0.9,1.1,1.8,1.5,2.8c1.6,3.5,1.4,8.7,1.3,13.7
			c0,1.4-0.1,2.8-0.1,4.2c0,9.3-2.3,16.4-7,21.9l-0.2,0.3v17.3L72,101.2L58.3,91.9z"/>
		<path class="st2" d="M72,23.4c3.5,0,6.9,0.8,9.9,2.2c0.8,0.4,1.6,0.8,2.4,1.4c1.1,0.8,1.4,1.6,1.5,2.1l0.3,1.2l1.2,0.3
			c0.4,0.1,1.3,0.4,1.8,1.1c0.1,0.1,0.2,0.3,0.3,0.5l0.1,0.1c0.5,0.8,1,1.7,1.4,2.6c1.5,3.3,1.3,8.4,1.2,13.3c0,1.4-0.1,2.9-0.1,4.2
			c0,9-2.2,16-6.8,21.3l-0.5,0.6V75v16.4L72,100l-12.7-8.6V75v-0.7l-0.5-0.6C54.2,68.3,52,61.4,52,52.4c0-1.4,0-2.8-0.1-4.2
			c-0.2-4.9-0.3-10,1.2-13.3C56.3,27.7,63.4,23.4,72,23.4 M72,21.4c-9.4,0-17.2,4.7-20.7,12.6c-1.7,3.7-1.5,9-1.3,14.2
			c0,1.5,0.1,2.9,0.1,4.2c0,9.5,2.4,16.9,7.3,22.6v17.5l14.7,10l14.7-10V75c4.9-5.7,7.3-13.1,7.3-22.6c0-1.3,0-2.7,0.1-4.2
			c0.2-5.1,0.3-10.4-1.3-14.2l0,0c-0.5-1-1-2-1.6-2.9L91.1,31c-0.1-0.2-0.3-0.4-0.4-0.6c-0.9-1.2-2.2-1.6-2.9-1.8
			c-0.2-0.8-0.7-2.1-2.3-3.3c-0.9-0.7-1.9-1.2-2.7-1.6C79.5,22.2,75.8,21.4,72,21.4L72,21.4z"/>
	</g>
	<path class="st3" d="M96.4,33.1C92.2,23,83.1,17,72,17s-20.2,6-24.4,16.1c-2,4.7-1.8,11.4-1.6,17.9c0.1,1.8,0.1,3.5,0.1,5.2h2.8
		c0-1.7-0.1-3.4-0.1-5.3c-0.2-5.9-0.4-12.5,1.4-16.7c3.7-9,11.9-14.3,21.8-14.3s18.1,5.4,21.8,14.3c1.7,4.2,1.5,10.8,1.4,16.7
		c-0.1,1.8-0.1,3.6-0.1,5.3h2.8c0-1.6,0.1-3.4,0.1-5.2C98.2,44.5,98.4,37.8,96.4,33.1z"/>
	<path d="M92.7,34L92.7,34c-0.5-1-1-2-1.6-2.9V31c-0.1-0.2-0.3-0.4-0.4-0.6c-0.9-1.2-2.2-1.6-2.9-1.8c-0.2-0.8-0.7-2.1-2.3-3.3
		c-0.9-0.7-1.9-1.2-2.7-1.6c-3.2-1.6-6.9-2.4-10.7-2.4c-9.4,0-17.2,4.7-20.7,12.6c-1.7,3.7-1.5,9-1.3,14.2c0,1.5,0.1,2.9,0.1,4.2
		c0,9.6,2.4,17.1,7.5,22.8c0.3,0.4,0.6,0.7,0.9,1.1c3.3,3.8,6.1,7.1,13.6,7.1s10.3-3.3,13.6-7.1c0.3-0.3,0.6-0.7,0.9-1.1
		c5-5.7,7.5-13.2,7.5-22.8c0-1.3,0-2.7,0.1-4.2C94.3,43.1,94.4,37.8,92.7,34z M85.5,74.3c-0.3,0.4-0.6,0.7-0.9,1.1
		c-3.3,3.8-5.7,6.6-12.5,6.6s-9.2-2.8-12.5-6.6c-0.3-0.4-0.6-0.7-0.9-1.1c-4.3-4.9-6.6-11.1-7-18.9c0.1-0.1,0.2-0.2,0.4-0.2
		c0.6-0.2,0.9,2,1.4,3.6c-0.1-3.8-0.4-8.1,0.1-11.8c1.3-3.5,4.2-9.9,8.9-9.3c15,2,20.5-1.9,21.8-1.6c0.5,2.1,4.6,8.6,6.5,11.6
		c0.1,3.5-0.4,7.5-0.3,10.9c0,0.6,0.5,0.3,0.5,0.3c0.5-1.6,0.8-3.8,1.4-3.6c0.1,0,0.2,0.1,0.4,0.2C92,63.2,89.7,69.4,85.5,74.3z"/>
	<path class="st3" d="M92.7,34L92.7,34c-0.5-1-1-2-1.6-2.9V31c-0.1-0.2-0.3-0.4-0.4-0.6c-0.9-1.2-2.2-1.6-2.9-1.8
		c-0.2-0.8-0.7-2.1-2.3-3.3c-0.9-0.7-1.9-1.2-2.7-1.6c-3.2-1.6-6.9-2.4-10.7-2.4c-9.4,0-17.2,4.7-20.7,12.6c-1.7,3.7-1.5,9-1.3,14.2
		c0,1.5,0.1,2.9,0.1,4.2c0,9.6,2.4,17.1,7.5,22.8c0.3,0.4,0.6,0.7,0.9,1.1c3.3,3.8,6.1,7.1,13.6,7.1s10.3-3.3,13.6-7.1
		c0.3-0.3,0.6-0.7,0.9-1.1c5-5.7,7.5-13.2,7.5-22.8c0-1.3,0-2.7,0.1-4.2C94.3,43.1,94.4,37.8,92.7,34z M85.5,74.3
		c-0.3,0.4-0.6,0.7-0.9,1.1c-3.3,3.8-5.7,6.6-12.5,6.6s-9.2-2.8-12.5-6.6c-0.3-0.4-0.6-0.7-0.9-1.1c-4.3-4.9-6.6-11.1-7-18.9
		c0.1-0.1,0.2-0.2,0.4-0.2c0.6-0.2,0.9,2,1.4,3.6c-0.1-3.8-0.4-8.1,0.1-11.8c1.3-3.5,4.2-9.9,8.9-9.3c15,2,20.5-1.9,21.8-1.6
		c0.5,2.1,4.6,8.6,6.5,11.6c0.1,3.5-0.4,7.5-0.3,10.9c0,0.6,0.5,0.3,0.5,0.3c0.5-1.6,0.8-3.8,1.4-3.6c0.1,0,0.2,0.1,0.4,0.2
		C92,63.2,89.7,69.4,85.5,74.3z"/>
	<path class="st2" d="M90.7,87.4l-4.4-4.7L72,96.6L57.7,82.7l-4.4,4.7c-14.7,3.5-27.9,12.8-27.9,25.8v1.8c0,6.6,6,12,13.4,12H72
		h33.2c7.4,0,13.4-5.4,13.4-12v-1.8C118.6,100.2,105.4,90.9,90.7,87.4z"/>
	<path class="st3" d="M73,74.1h-4c-0.9,0-1.7,0.5-2.1,1.2C56.4,74,48.4,67.1,48.4,58.8h-2.1c0,9.4,8.8,17.2,20.4,18.7
		c0.3,1,1.3,1.7,2.4,1.7h4c1.4,0,2.5-1.1,2.5-2.5C75.5,75.3,74.3,74.1,73,74.1z"/>
	<path class="st4" d="M60.5,105.2l-6.3-16.7l3.6-3.8l12.9,12.6L60.5,105.2z M73.3,97.3l12.9-12.6l3.6,3.8l-6.3,16.7L73.3,97.3z"/>
	<circle class="st4" cx="72" cy="110.7" r="1.6"/>
	<circle class="st4" cx="72" cy="122.8" r="1.6"/>
	<path class="st2" d="M47.2,63.3h0.6c1.4-0.1,2.4-1.3,2.3-2.7l-0.7-9.2c-0.1-1.4-1.3-2.4-2.7-2.3h-0.6c-2.2,0.2-3.9,2.1-3.7,4.3
		l0.5,6.3C43,61.8,45,63.5,47.2,63.3z"/>
	<path class="st2" d="M96.8,63.3h-0.6c-1.4-0.1-2.4-1.3-2.3-2.7l0.7-9.2c0.1-1.4,1.3-2.4,2.7-2.3h0.6c2.2,0.2,3.9,2.1,3.7,4.3
		l-0.5,6.3C101,61.8,99,63.5,96.8,63.3z"/>
</g>
</svg>
