<?xml version="1.0" encoding="utf-8"?>
<!-- Generator: Adobe Illustrator 26.0.1, SVG Export Plug-In . SVG Version: 6.00 Build 0)  -->
<svg version="1.1" id="Layer_1" xmlns="http://www.w3.org/2000/svg" xmlns:xlink="http://www.w3.org/1999/xlink" x="0px" y="0px"
	 viewBox="0 0 144 144" style="enable-background:new 0 0 144 144;" xml:space="preserve">
<style type="text/css">
	.st0{fill:#FCF3ED;}
	.st1{fill:#D4CFD9;}
	.st2{fill:#5C5266;}
</style>
<path class="st0" d="M142.8,10.7c0.8-1.3,1.3-2.7,1.2-3.3s-0.7-1.9-1.1-1.7c-0.4,0.2-1.4,0.4-1.4-0.1s-0.4-1.8-0.9-1.6
	c-0.5,0.2-1.9,0.8-2.1,1.2c-0.2,0.3-0.9,1.5-1.2,1.7s-1,0.9-1.1,0.8s-0.2-0.9,0.2-1.5c0,0,0,0,0.3-0.6c0.2-0.3,0.2-0.3,0.2-0.3
	c0.2-0.3,0.2-0.7,0-0.9c-0.2-0.1-1-0.5-1.3-0.4s-1.4-0.4-1.5-1.1c-0.2-0.8-1-2.7-1.5-2.4s-1.7,0.6-1.9,0.3c-0.1-0.3-0.8-1-1.3-0.7
	c-0.5,0.2-2.1,1.7-2.5,2.8c-0.4,1-1.7,4.7-2.2,5.7c0,0,0,0-0.6,0.7c-0.3,0.3-0.3,0.3-0.3,0.3c-0.7,0-1.5,0.3-1.7,0.6
	c0,0,0,0-0.2,0.3c-0.5,0.9-0.5,0.9-0.5,0.9c-0.6,1-0.9,2.1-0.7,2.4c0.2,0.3-0.3,1.7-1,2.8s-4,1.9-4,0.7c0-1.2,0.1-4.2,0.5-4.1
	s1.2-0.1,1.5-0.6s1-2.1,0.9-2.4c-0.1-0.3-0.5-1.3-0.7-1.4c-0.2-0.1-0.8-0.8-0.9-1.1c-0.1-0.3-0.8-1.2-1.2-1.3
	c-0.5-0.1-2,0.4-2.4,1.4c-0.3,1-2.9,4-4.2,6.3c0,0,0,0-1.9,0.6c-2.8,0.9-2.8,0.9-2.8,0.9c-0.9,2.5-2.1,5.3-2.7,6.3c0,0,0,0-1.3-0.2
	C99,21.6,99,21.6,99,21.6c-0.6,1-1.2,2.2-1.3,2.8c-0.1,0.6-2-0.1-2.2-0.3c-0.2-0.1-0.9-0.2-1.1,0.1c-0.2,0.3-1.2,2.5-1.9,4
	c-0.7,1.5-4.7,3-4.7,2.6s-0.1-1.7-0.4-2.1c-0.3-0.3-0.4-2.2,0.3-3.5c0,0,0,0,0.6-1.1c0.5-0.9,0.5-0.9,0.5-0.9c0.6-1,1.1-2.4,1.3-3
	c0.1-0.6,0.5-2.7,0.7-3c0,0,0,0,0.2-0.3c0.4-0.6,0.4-0.6,0.4-0.6c0.4-0.7,0.6-1.5,0.5-1.8s-1.1-1.1-2.1-1c0,0,0,0-0.2,0.7
	c-0.3,1.1-0.3,2.4-0.6,3.5c-0.1,0.4-0.1,0.4-0.1,0.4c-0.5,0.3-1.1,0.2-1.3-0.3c-0.2-0.5,0-2.9,0.8-4.1c0,0,0,0,0.6-1.3
	c0.1-0.3,0.1-0.3,0.1-0.3c-0.4-0.6-1.4-0.1-2.1,1.3c0,0,0,0-0.7,1.2c-0.5,0.9-0.5,0.9-0.5,0.9c-0.6,1-0.9,2-0.7,2.3
	c0.2,0.2-0.4,1.7-1.2,3.2c-0.8,1.5-3.3,5.1-3.6,4.6c-0.3-0.5-1.9,0.1-3,2.2c0,0,0,0-1.1,1.9s-2.1,3.7-3.2,5.6
	c-0.5,0.9-0.5,0.9-0.5,0.9c-0.6,1-1.3,2.1-1.5,2.4c-0.3,0.3-1,0.9-1.1,0.8s-0.2-0.9,0.2-1.5c0,0,0,0,0.3-0.6
	c0.5-0.9,0.5-0.9,0.5-0.9c0.6-1,0.5-1.8-0.2-1.8c0,0,0,0-0.4,0.3c-0.6,0.5-0.6,0.5-0.6,0.5c-0.8,0.2-1.6,0.6-1.8,1
	c-0.2,0.3-0.9,1.9-1.2,2.7c-0.3,0.8-2.3,0.8-1.3-1c0,0,0,0,0.7-1.2c0.4-0.6,0.4-0.6,0.4-0.6c0.4-0.7,1.2-3,1.7-5.3
	c0.5-2.2,4.1-7.7,4.6-8.5c0.5-0.9,1.8-3.5,1.8-4s-0.2-1.7-0.5-1.7s-1.5,1-1.9,2.1c-0.5,1.1-2.9,3.3-2.9,2.9s-0.3-1.1-0.8-1.2
	s-2.2,0.5-2.7,1.6s-2.9,3.3-2.9,2.9s-0.7-0.7-1.5-0.3c0,0,0,0-0.6,0.6C60,25.8,60,25.8,60,25.8c-0.8,0.2-1.6,0.6-1.8,0.9
	s-0.9,1.9-1.2,2.7s-2.7,1.5-2.2,0.6s1.4-2.9,1.3-3.1c-0.2-0.1-1,0.5-1.3,1.7c0,0,0,0-1.8-1.3c-0.3-0.2-0.3-0.2-0.3-0.2
	c-0.6,0.3-2,2.1-3.2,4.2c0,0,0,0-1.1,1.8s-1.6,4.4-3.3,5.4c-2.6,1.5-3.3,4.2-5,6.4C38.5,47,38.5,47,38.5,47
	c-1.9,2.3-3.7,4.7-4.1,5.3c-0.4,0.7-2.6,3.5-4,4.9c0,0,0,0-1,1.4c-1.2,1.6-1.2,1.6-1.2,1.6c-1,2-2.3,3.6-2.9,3.6
	c-0.5-0.1-3.1,1.3-4.5,3.1c-1.5,1.8-5.7,8.1-6.7,9.4C13,77.6,9.9,81.9,9.5,83c-0.4,1-5,3.2-6.7,6.3c0,0,0,0-1.6,2.8
	C0.7,93,0.7,93,0.7,93c-0.6,1-0.9,2-0.7,2.1s1.1,0.6,1.6,0.6s1.9,0.7,2.1,0.8c0.2,0.1,0.8,0.4,1,0.3c0.1-0.1,0.6,1.2,0.4,3.2
	s-1.2,7.3-0.9,7.1c0.3-0.2,1.3-0.8,1.9-1c0.6-0.3,2.1-0.2,2.1,0.8s-3,2.5-3.5,3.9S1,114.5,1.1,115s1,1.8,1.7,1.3
	c0.6-0.5,2.6-2.2,2.8-2.7s1.5-1.4,2.1-1s2.5,2.9,1.6,3.6s-4.7,1.2-5.4,1.6s-1.7,2.5-1.5,2.9s1.2,1.2,1.6,0.8
	c0.4-0.4,1.6-1.3,1.7-1.2c0.1,0.1,0.2,0.6,0.1,0.9c-0.2,0.3-0.5,1.2-0.3,1.4c0.2,0.1,0.9,1.2,1,2c0.2,0.8,2.2,0.7,2.2,0.9
	c0,0,0,0.1,0,0.3c2-0.8,3.5,0.5,4.8,0.6c1.7,0.1-0.4,1.1-2.2,2.6s0.8,2.3,3,1.3c2.1-1,3.3-1.7,4.7-1.2s-1.6,1.4-3.7,2.6
	c-2.1,1.3-0.5,3.3,0.9,2.4c1.4-0.9,1.5-1.2,1.9,1.4c0.3,2.6,2.8,0.6,5.5-0.9s2.6,0.4,1.8,1.8c-0.8,1.4-4.8,4.3-1.9,4.4
	c3,0.1,7.5-2.2,22.2,1.9c7.1,2,14.7,0.8,21.2-1.3c0.7-0.5,1.5-1,2.3-1.5c0,0,0,0,3.9-2.5c1.3-0.8,1.3-0.8,1.3-0.8
	c0.7-0.6,1.4-1.3,2-1.9c2.5-1.2,4.6-2.7,7.1-4.2c3.4-2,7.1-3.4,10.8-4.8c7.7-3,14.6-7,21.7-11.1c5.8-3.3,10.4-7.3,11.1-14.4
	c0.3-3-0.2-6.1-1.5-8.9c-0.7-1.4-1.5-2.6-2.5-3.7c-1.3-1.5-2.9-2.2-2.6-4.3c0.3-1.6,2.2-3.7,2.8-5.2c0.6-1.4,1-2.8,1.2-4.3
	c0.4-3.6-0.3-7.7-2.4-10.8c-0.4-0.5-0.7-1-1.1-1.4c0.2-0.4,0.6-1.1,1.4-2.4c1.4-2.5,1.4-2.5,1.4-2.5c1.6-2.7,2.8-5.2,2.7-5.6
	c-0.1-0.3,1.2-5.4,2.6-10.8c0,0,0,0,3.4-3.6c0.1-0.1,0.1-0.1,0.1-0.1c0.5,0.2,1.6-0.7,2.3-2c0,0,0,0,0.7-1.2s0.7-1.2,0.7-1.2
	c0.8-1.4,1.7-3.5,2-4.7s1.9-4.7,2.3-5.5s0.1-3.8-0.2-4.5c0,0,0,0,0.2-0.5c0.3-1,0.9-1.8,1.4-2.6c0.2-0.3,0.2-0.3,0.2-0.3
	c0.2-0.3,0.1-1.3-0.2-2c0,0,0,0,0.2-0.4C142.8,10.7,142.8,10.7,142.8,10.7z"/>
<g>
	<path class="st1" d="M105.1,37.9H25c-0.8,0-1.4,0.6-1.4,1.4v52.3c0,0.8,0.6,1.4,1.4,1.4h80c0.8,0,1.4-0.6,1.4-1.4V39.2
		C106.4,38.5,105.8,37.9,105.1,37.9z"/>
	<path class="st2" d="M32.5,106.1H20.3c-1.8,0-3.3-1.5-3.3-3.3V73.5c0-1.8,1.5-3.3,3.3-3.3h12.2c1.8,0,3.3,1.5,3.3,3.3v29.3
		C35.9,104.7,34.4,106.1,32.5,106.1z"/>
	<g>
		<rect x="38.5" y="83.7" class="st2" width="51.5" height="9.2"/>
		<path class="st2" d="M105.1,37.9H25c-0.8,0-1.4,0.6-1.4,1.4v28.3h5.5V43.3c0-0.4,0.3-0.7,0.7-0.7h70.4c0.4,0,0.7,0.3,0.7,0.7v8.3
			h5.5V39.2C106.4,38.5,105.8,37.9,105.1,37.9z"/>
	</g>
	<path class="st2" d="M125,106.1H94.7c-1.1,0-2-0.9-2-2V56.3c0-1.1,0.9-2,2-2H125c1.1,0,2,0.9,2,2v47.9
		C127,105.2,126.1,106.1,125,106.1z"/>
	<path class="st1" d="M94.1,103.5V56.9c0-0.6,0.4-1,1-1h29.5c0.6,0,1,0.4,1,1v46.7c0,0.6-0.4,1-1,1H95.1
		C94.6,104.5,94.1,104.1,94.1,103.5z"/>
	<path class="st1" d="M18.2,103.7v-31c0-0.6,0.4-1,1-1h14.4c0.6,0,1,0.4,1,1v31c0,0.6-0.4,1-1,1H19.2
		C18.7,104.7,18.2,104.2,18.2,103.7z"/>
	<path class="st2" d="M76.5,102.4l-1.1-1.2c-0.7-0.8-1.1-1.9-1.1-3v-2.8c0-0.4-0.3-0.7-0.7-0.7H56.4c-0.4,0-0.7,0.3-0.7,0.7v2.8
		c0,1.1-0.4,2.2-1.1,3l-1.1,1.2c-0.4,0.4-0.1,1.1,0.5,1.1h22C76.6,103.5,76.9,102.8,76.5,102.4z"/>
	<g>
		<circle class="st2" cx="104.2" cy="101.2" r="1.7"/>
		<circle class="st2" cx="109.9" cy="101.2" r="1.7"/>
		<circle class="st2" cx="115.5" cy="101.2" r="1.7"/>
	</g>
	<circle class="st1" cx="65" cy="88.3" r="2.3"/>
	<circle class="st2" cx="26.4" cy="102.6" r="1.4"/>
</g>
</svg>
