<?xml version="1.0" encoding="utf-8"?>
<!-- Generator: Adobe Illustrator 26.0.1, SVG Export Plug-In . SVG Version: 6.00 Build 0)  -->
<svg version="1.1" id="Layer_1" xmlns="http://www.w3.org/2000/svg" xmlns:xlink="http://www.w3.org/1999/xlink" x="0px" y="0px"
	 viewBox="0 0 144 144" style="enable-background:new 0 0 144 144;" xml:space="preserve">
<style type="text/css">
	.st0{fill:#FCF3ED;}
	.st1{fill:#453A51;}
	.st2{fill:#818F7A;}
	.st3{fill:#7E7785;}
	.st4{fill:#BF9A85;}
	.st5{fill:#A9A0B3;}
	.st6{fill:#FFFFFF;}
	.st7{fill:#CA855C;}
	.st8{fill:#B2BFAD;}
	.st9{opacity:0.3;fill:none;stroke:#7E7785;stroke-width:1.5;stroke-linecap:round;stroke-linejoin:round;stroke-miterlimit:10;}
</style>
<path class="st0" d="M142.8,10.7c0.8-1.3,1.3-2.7,1.2-3.3c-0.1-0.6-0.7-1.9-1.1-1.7c-0.4,0.2-1.4,0.4-1.4-0.1c0-0.5-0.4-1.8-0.9-1.6
	c-0.5,0.2-1.9,0.8-2.1,1.2c-0.2,0.3-0.9,1.5-1.2,1.7s-1,0.9-1.1,0.8c-0.1-0.1-0.2-0.9,0.2-1.5c0,0,0,0,0.3-0.6
	c0.2-0.3,0.2-0.3,0.2-0.3c0.2-0.3,0.2-0.7,0-0.9c-0.2-0.1-1-0.5-1.3-0.4c-0.3,0.1-1.4-0.4-1.5-1.1c-0.2-0.8-1-2.7-1.5-2.4
	c-0.5,0.3-1.7,0.6-1.9,0.3c-0.1-0.3-0.8-1-1.3-0.7c-0.5,0.2-2.1,1.7-2.5,2.8c-0.4,1-1.7,4.7-2.2,5.7c0,0,0,0-0.6,0.7
	c-0.3,0.3-0.3,0.3-0.3,0.3c-0.7,0-1.5,0.3-1.7,0.6c0,0,0,0-0.2,0.3c-0.5,0.9-0.5,0.9-0.5,0.9c-0.6,1-0.9,2.1-0.7,2.4
	c0.2,0.3-0.3,1.7-1,2.8c-0.7,1.1-4,1.9-4,0.7c0-1.2,0.1-4.2,0.5-4.1s1.2-0.1,1.5-0.6c0.3-0.5,1-2.1,0.9-2.4
	c-0.1-0.3-0.5-1.3-0.7-1.4c-0.2-0.1-0.8-0.8-0.9-1.1c-0.1-0.3-0.8-1.2-1.2-1.3c-0.5-0.1-2,0.4-2.4,1.4c-0.3,1-2.9,4-4.2,6.3
	c0,0,0,0-1.9,0.6c-2.8,0.9-2.8,0.9-2.8,0.9c-0.9,2.5-2.1,5.3-2.7,6.3c0,0,0,0-1.3-0.2C99,21.6,99,21.6,99,21.6
	c-0.6,1-1.2,2.2-1.3,2.8c-0.1,0.6-2-0.1-2.2-0.3c-0.2-0.1-0.9-0.2-1.1,0.1c-0.2,0.3-1.2,2.5-1.9,4c-0.7,1.5-4.7,3-4.7,2.6
	c0-0.4-0.1-1.7-0.4-2.1c-0.3-0.3-0.4-2.2,0.3-3.5c0,0,0,0,0.6-1.1c0.5-0.9,0.5-0.9,0.5-0.9c0.6-1,1.1-2.4,1.3-3
	c0.1-0.6,0.5-2.7,0.7-3c0,0,0,0,0.2-0.3c0.4-0.6,0.4-0.6,0.4-0.6c0.4-0.7,0.6-1.5,0.5-1.8c-0.1-0.3-1.1-1.1-2.1-1c0,0,0,0-0.2,0.7
	c-0.3,1.1-0.3,2.4-0.6,3.5c-0.1,0.4-0.1,0.4-0.1,0.4c-0.5,0.3-1.1,0.2-1.3-0.3c-0.2-0.5,0-2.9,0.8-4.1c0,0,0,0,0.6-1.3
	c0.1-0.3,0.1-0.3,0.1-0.3c-0.4-0.6-1.4-0.1-2.1,1.3c0,0,0,0-0.7,1.2c-0.5,0.9-0.5,0.9-0.5,0.9c-0.6,1-0.9,2-0.7,2.3
	c0.2,0.2-0.4,1.7-1.2,3.2c-0.8,1.5-3.3,5.1-3.6,4.6c-0.3-0.5-1.9,0.1-3,2.2c0,0,0,0-1.1,1.9c-1.1,1.9-2.1,3.7-3.2,5.6
	c-0.5,0.9-0.5,0.9-0.5,0.9c-0.6,1-1.3,2.1-1.5,2.4c-0.3,0.3-1,0.9-1.1,0.8s-0.2-0.9,0.2-1.5c0,0,0,0,0.3-0.6
	c0.5-0.9,0.5-0.9,0.5-0.9c0.6-1,0.5-1.8-0.2-1.8c0,0,0,0-0.4,0.3c-0.6,0.5-0.6,0.5-0.6,0.5c-0.8,0.2-1.6,0.6-1.8,1
	c-0.2,0.3-0.9,1.9-1.2,2.7c-0.3,0.8-2.3,0.8-1.3-1c0,0,0,0,0.7-1.2c0.4-0.6,0.4-0.6,0.4-0.6c0.4-0.7,1.2-3,1.7-5.3
	c0.5-2.2,4.1-7.7,4.6-8.5c0.5-0.9,1.8-3.5,1.8-4c0-0.5-0.2-1.7-0.5-1.7c-0.3,0-1.5,1-1.9,2.1c-0.5,1.1-2.9,3.3-2.9,2.9
	c0-0.4-0.3-1.1-0.8-1.2c-0.5-0.1-2.2,0.5-2.7,1.6c-0.5,1.1-2.9,3.3-2.9,2.9c0-0.4-0.7-0.7-1.5-0.3c0,0,0,0-0.6,0.6
	C60,25.8,60,25.8,60,25.8c-0.8,0.2-1.6,0.6-1.8,0.9c-0.2,0.3-0.9,1.9-1.2,2.7s-2.7,1.5-2.2,0.6c0.5-0.9,1.4-2.9,1.3-3.1
	c-0.2-0.1-1,0.5-1.3,1.7c0,0,0,0-1.8-1.3c-0.3-0.2-0.3-0.2-0.3-0.2c-0.6,0.3-2,2.1-3.2,4.2c0,0,0,0-1.1,1.8
	c-1.1,1.8-1.6,4.4-3.3,5.4c-2.6,1.5-3.3,4.2-5,6.4c-1.6,2.1-1.6,2.1-1.6,2.1c-1.9,2.3-3.7,4.7-4.1,5.3c-0.4,0.7-2.6,3.5-4,4.9
	c0,0,0,0-1,1.4c-1.2,1.6-1.2,1.6-1.2,1.6c-1,2-2.3,3.6-2.9,3.6c-0.5-0.1-3.1,1.3-4.5,3.1c-1.5,1.8-5.7,8.1-6.7,9.4
	c-1.1,1.3-4.2,5.6-4.6,6.7c-0.4,1-5,3.2-6.7,6.3c0,0,0,0-1.6,2.8c-0.5,0.9-0.5,0.9-0.5,0.9c-0.6,1-0.9,2-0.7,2.1
	c0.2,0.1,1.1,0.6,1.6,0.6c0.5,0,1.9,0.7,2.1,0.8c0.2,0.1,0.8,0.4,1,0.3c0.1-0.1,0.6,1.2,0.4,3.2c-0.2,2-1.2,7.3-0.9,7.1
	c0.3-0.2,1.3-0.8,1.9-1c0.6-0.3,2.1-0.2,2.1,0.8c0,1-3,2.5-3.5,3.9c-0.5,1.4-3.7,3.7-3.6,4.2c0.1,0.5,1,1.8,1.7,1.3
	c0.6-0.5,2.6-2.2,2.8-2.7s1.5-1.4,2.1-1c0.6,0.4,2.5,2.9,1.6,3.6c-0.9,0.7-4.7,1.2-5.4,1.6c-0.7,0.4-1.7,2.5-1.5,2.9
	c0.2,0.4,1.2,1.2,1.6,0.8c0.4-0.4,1.6-1.3,1.7-1.2c0.1,0.1,0.2,0.6,0.1,0.9c-0.2,0.3-0.5,1.2-0.3,1.4c0.2,0.1,0.9,1.2,1,2
	c0.2,0.8,2.2,0.7,2.2,0.9c0,0,0,0.1,0,0.3c2-0.8,3.5,0.5,4.8,0.6c1.7,0.1-0.4,1.1-2.2,2.6c-1.8,1.5,0.8,2.3,3,1.3
	c2.1-1,3.3-1.7,4.7-1.2c1.4,0.5-1.6,1.4-3.7,2.6c-2.1,1.3-0.5,3.3,0.9,2.4c1.4-0.9,1.5-1.2,1.9,1.4c0.3,2.6,2.8,0.6,5.5-0.9
	c2.7-1.5,2.6,0.4,1.8,1.8c-0.8,1.4-4.8,4.3-1.9,4.4c3,0.1,7.5-2.2,22.2,1.9c7.1,2,14.7,0.8,21.2-1.3c0.7-0.5,1.5-1,2.3-1.5
	c0,0,0,0,3.9-2.5c1.3-0.8,1.3-0.8,1.3-0.8c0.7-0.6,1.4-1.3,2-1.9c2.5-1.2,4.6-2.7,7.1-4.2c3.4-2,7.1-3.4,10.8-4.8
	c7.7-3,14.6-7,21.7-11.1c5.8-3.3,10.4-7.3,11.1-14.4c0.3-3-0.2-6.1-1.5-8.9c-0.7-1.4-1.5-2.6-2.5-3.7c-1.3-1.5-2.9-2.2-2.6-4.3
	c0.3-1.6,2.2-3.7,2.8-5.2c0.6-1.4,1-2.8,1.2-4.3c0.4-3.6-0.3-7.7-2.4-10.8c-0.4-0.5-0.7-1-1.1-1.4c0.2-0.4,0.6-1.1,1.4-2.4
	c1.4-2.5,1.4-2.5,1.4-2.5c1.6-2.7,2.8-5.2,2.7-5.6c-0.1-0.3,1.2-5.4,2.6-10.8c0,0,0,0,3.4-3.6c0.1-0.1,0.1-0.1,0.1-0.1
	c0.5,0.2,1.6-0.7,2.3-2c0,0,0,0,0.7-1.2c0.7-1.2,0.7-1.2,0.7-1.2c0.8-1.4,1.7-3.5,2-4.7c0.3-1.2,1.9-4.7,2.3-5.5s0.1-3.8-0.2-4.5
	c0,0,0,0,0.2-0.5c0.3-1,0.9-1.8,1.4-2.6c0.2-0.3,0.2-0.3,0.2-0.3c0.2-0.3,0.1-1.3-0.2-2c0,0,0,0,0.2-0.4
	C142.8,10.7,142.8,10.7,142.8,10.7z"/>
<rect x="20.1" y="-42.2" class="st1" width="11" height="11"/>
<rect x="33.6" y="-42.2" class="st2" width="11" height="11"/>
<rect x="20.1" y="-29.7" class="st3" width="11" height="11"/>
<g>
	<g>
		<path class="st4" d="M58,71.8c-0.2,0-0.4-0.1-0.4-0.3c-0.1-0.2-0.1-0.4,0-0.5c0.8-1.3,1.3-2.8,1.3-4.3c0-4.4-3.5-7.9-7.9-7.9
			c-0.3,0-0.6,0-0.9,0c-3.7,0.4-6.6,3.4-7,7.1c-0.2,1.8,0.3,3.6,1.2,5.1c0.1,0.2,0.1,0.4,0,0.5c-0.1,0.2-0.3,0.3-0.4,0.3H30.8
			c-0.3,0-0.5-0.2-0.5-0.5V58c0-0.6-0.5-1-1-1c-0.2,0-0.4,0.1-0.6,0.2c-1.2,0.8-2.6,1.2-4,1.2c-2.1,0-4.1-0.9-5.5-2.5
			c-1.4-1.6-2.1-3.6-1.8-5.8c0.4-3.4,3.2-6.2,6.6-6.5c0.2,0,0.5,0,0.7,0c1.4,0,2.8,0.4,4,1.2c0.2,0.1,0.4,0.2,0.6,0.2
			c0.6,0,1-0.4,1-1V30.8c0-0.3,0.2-0.5,0.5-0.5H44c0.2,0,0.4,0.1,0.4,0.3c0.1,0.2,0.1,0.4,0,0.5c-0.8,1.3-1.3,2.8-1.3,4.3
			c0,2.1,0.8,4.1,2.3,5.6c1.5,1.5,3.5,2.3,5.6,2.3c0.3,0,0.6,0,0.9,0c3.7-0.4,6.6-3.4,7-7.1c0.2-1.8-0.3-3.6-1.2-5.1
			c-0.1-0.2-0.1-0.4,0-0.5c0.1-0.2,0.3-0.3,0.4-0.3h13.2c0.3,0,0.5,0.2,0.5,0.5V44c0,0.3,0.1,0.5,0.3,0.7c0.2,0.2,0.4,0.3,0.7,0.3
			c0.2,0,0.4-0.1,0.6-0.2c1.2-0.8,2.6-1.2,4-1.2c0.2,0,0.5,0,0.7,0c3.5,0.3,6.2,3.1,6.6,6.5c0.2,2.1-0.4,4.2-1.8,5.8
			c-1.4,1.6-3.4,2.5-5.5,2.5c-1.4,0-2.8-0.4-4-1.2C73.2,57.1,73,57,72.8,57c-0.6,0-1,0.5-1,1v13.2c0,0.3-0.2,0.5-0.5,0.5H58z"/>
		<path class="st5" d="M58,30v0.5l13.2,0c0.1,0,0.3,0.1,0.3,0.3l0,13.2c0,0.7,0.6,1.3,1.3,1.3c0.2,0,0.5-0.1,0.7-0.2
			c1.2-0.8,2.5-1.1,3.9-1.1c0.2,0,0.5,0,0.7,0c3.3,0.3,6,3,6.4,6.3c0.2,2.1-0.4,4-1.8,5.6c-1.4,1.5-3.3,2.4-5.3,2.4
			c-1.4,0-2.7-0.4-3.9-1.2c-0.2-0.1-0.5-0.2-0.7-0.2c-0.7,0-1.3,0.6-1.3,1.3l0,13.2c0,0.1-0.1,0.3-0.3,0.3l-13.2,0
			c-0.1,0-0.2-0.1-0.2-0.1c0,0-0.1-0.2,0-0.3c0.9-1.3,1.3-2.9,1.3-4.4c0-4.5-3.7-8.1-8.1-8.1c-0.3,0-0.6,0-0.9,0.1
			c-3.8,0.4-6.8,3.5-7.2,7.3c-0.2,1.9,0.3,3.7,1.3,5.2c0.1,0.1,0,0.2,0,0.3c0,0-0.1,0.1-0.2,0.1l-13.2,0c-0.1,0-0.3-0.1-0.3-0.3
			l0-13.2c0-0.7-0.6-1.3-1.3-1.3c-0.2,0-0.5,0.1-0.7,0.2c-1.2,0.8-2.5,1.2-3.9,1.2c-2,0-4-0.9-5.3-2.4c-1.4-1.5-2-3.5-1.8-5.6
			c0.4-3.3,3.1-6,6.4-6.3c0.2,0,0.5,0,0.7,0c1.4,0,2.7,0.4,3.9,1.1c0.2,0.1,0.5,0.2,0.7,0.2c0.7,0,1.3-0.6,1.3-1.3l0-13.2
			c0-0.1,0.1-0.3,0.3-0.3H44c0.1,0,0.2,0.1,0.2,0.1c0,0,0.1,0.2,0,0.3c-0.9,1.3-1.3,2.9-1.3,4.4c0,4.5,3.7,8.1,8.1,8.1
			c0.3,0,0.6,0,0.9-0.1c3.8-0.4,6.8-3.5,7.2-7.3c0.2-1.9-0.3-3.7-1.3-5.2c-0.1-0.1,0-0.2,0-0.3c0,0,0.1-0.1,0.2-0.1V30 M58,30
			c-0.6,0-1,0.7-0.6,1.2c0.9,1.4,1.4,3.1,1.2,4.9c-0.3,3.5-3.2,6.5-6.7,6.8c-0.3,0-0.6,0-0.9,0c-4.2,0-7.6-3.4-7.6-7.6
			c0-1.5,0.5-3,1.2-4.2c0.3-0.5,0-1.2-0.6-1.2H30.7c-0.4,0-0.8,0.3-0.8,0.8L30,44c0,0.5-0.4,0.8-0.8,0.8c-0.1,0-0.3,0-0.4-0.1
			c-1.2-0.8-2.6-1.2-4.2-1.2c-0.2,0-0.5,0-0.7,0c-3.5,0.3-6.5,3.2-6.8,6.7c-0.5,4.6,3.1,8.5,7.6,8.5c1.5,0,3-0.5,4.2-1.2
			c0.1-0.1,0.3-0.1,0.4-0.1c0.4,0,0.8,0.3,0.8,0.8l0,13.2c0,0.4,0.3,0.8,0.8,0.8L44,72c0.6,0,1-0.7,0.6-1.2
			c-0.9-1.4-1.4-3.1-1.2-4.9c0.3-3.5,3.2-6.5,6.7-6.8c0.3,0,0.6,0,0.9,0c4.2,0,7.6,3.4,7.6,7.6c0,1.5-0.5,3-1.2,4.2
			c-0.3,0.5,0,1.2,0.6,1.2l13.2,0c0.4,0,0.8-0.3,0.8-0.8L72,58c0-0.4,0.4-0.8,0.8-0.8c0.1,0,0.3,0,0.4,0.1c1.2,0.8,2.6,1.2,4.2,1.2
			c4.5,0,8.1-3.9,7.6-8.5c-0.4-3.5-3.3-6.4-6.8-6.7c-0.3,0-0.5,0-0.7,0c-1.5,0-3,0.5-4.2,1.2c-0.1,0.1-0.3,0.1-0.4,0.1
			c-0.4,0-0.8-0.3-0.8-0.8c0-3.3,0-10.8,0-13.2c0-0.4-0.3-0.8-0.8-0.8L58,30L58,30z"/>
	</g>
	<g>
		<path class="st6" d="M100,113.5c-0.1,0-0.2-0.1-0.2-0.1c0,0-0.1-0.2,0-0.3c0.9-1.3,1.3-2.9,1.3-4.4c0-4.5-3.7-8.1-8.1-8.1
			c-0.3,0-0.6,0-0.9,0.1c-3.8,0.4-6.8,3.5-7.2,7.3c-0.2,1.9,0.3,3.7,1.3,5.2c0.1,0.1,0,0.2,0,0.3c0,0-0.1,0.1-0.2,0.1H72.8
			c-0.1,0-0.3-0.1-0.3-0.3V100c0-0.7-0.6-1.3-1.3-1.3c-0.2,0-0.5,0.1-0.7,0.2c-1.2,0.8-2.5,1.2-3.9,1.2c-2,0-4-0.9-5.3-2.4
			c-1.4-1.5-2-3.5-1.8-5.6c0.4-3.3,3.1-6,6.4-6.3c0.2,0,0.5,0,0.7,0c1.4,0,2.7,0.4,3.9,1.1c0.2,0.1,0.5,0.2,0.7,0.2
			c0.7,0,1.3-0.6,1.3-1.3V72.8c0-0.1,0.1-0.3,0.3-0.3H86c0.1,0,0.2,0.1,0.2,0.1c0,0,0.1,0.2,0,0.3c-0.9,1.3-1.3,2.9-1.3,4.4
			c0,2.2,0.8,4.2,2.4,5.8s3.6,2.4,5.8,2.4c0.3,0,0.6,0,0.9-0.1c3.8-0.4,6.8-3.5,7.2-7.3c0.2-1.9-0.3-3.7-1.3-5.2
			c-0.1-0.1,0-0.2,0-0.3c0,0,0.1-0.1,0.2-0.1h13.2c0.1,0,0.3,0.1,0.3,0.3V86c0,0.4,0.1,0.7,0.4,0.9c0.2,0.2,0.5,0.3,0.9,0.3
			c0.2,0,0.5-0.1,0.7-0.2c1.2-0.8,2.5-1.1,3.9-1.1c0.2,0,0.5,0,0.7,0c3.3,0.3,6,3,6.4,6.3c0.2,2.1-0.4,4-1.8,5.6
			c-1.4,1.5-3.3,2.4-5.3,2.4c-1.4,0-2.7-0.4-3.9-1.2c-0.2-0.1-0.5-0.2-0.7-0.2c-0.7,0-1.3,0.6-1.3,1.3v13.2c0,0.1-0.1,0.3-0.3,0.3
			H100z"/>
		<path class="st7" d="M100.5,73l12.5,0l0,13c0,1,0.8,1.8,1.8,1.8c0.3,0,0.7-0.1,1-0.3c1.1-0.7,2.3-1.1,3.6-1.1c0.2,0,0.4,0,0.6,0
			c3.1,0.3,5.6,2.8,5.9,5.9c0.2,1.9-0.4,3.8-1.7,5.2c-1.3,1.4-3.1,2.2-4.9,2.2c-1.3,0-2.5-0.4-3.6-1.1c-0.3-0.2-0.6-0.3-1-0.3
			c-1,0-1.8,0.8-1.8,1.8l0,13h-12.5c0.8-1.3,1.2-2.8,1.2-4.3c0-4.8-3.9-8.6-8.6-8.6c-0.3,0-0.7,0-1,0.1c-4,0.4-7.2,3.7-7.6,7.7
			c-0.2,1.8,0.2,3.6,1.1,5.2L73,113l0-13c0-1-0.8-1.8-1.8-1.8c-0.3,0-0.7,0.1-1,0.3c-1.1,0.7-2.3,1.1-3.6,1.1
			c-1.9,0-3.7-0.8-4.9-2.2c-1.3-1.4-1.9-3.3-1.7-5.2c0.3-3,2.9-5.6,5.9-5.9c0.2,0,0.4,0,0.6,0c1.3,0,2.5,0.4,3.6,1.1
			c0.3,0.2,0.6,0.3,1,0.3c0.5,0,0.9-0.2,1.2-0.5c0.4-0.3,0.5-0.8,0.5-1.3l0-13h12.5c-0.8,1.3-1.2,2.8-1.2,4.3c0,4.8,3.9,8.6,8.6,8.6
			c0.3,0,0.7,0,1-0.1c4-0.4,7.2-3.7,7.6-7.7C101.8,76.3,101.4,74.6,100.5,73 M100,72c-0.6,0-1,0.7-0.6,1.2c0.9,1.4,1.4,3.1,1.2,4.9
			c-0.3,3.5-3.2,6.5-6.7,6.8c-0.3,0-0.6,0-0.9,0c-4.2,0-7.6-3.4-7.6-7.6c0-1.5,0.5-3,1.2-4.2c0.3-0.5,0-1.2-0.6-1.2H72.8
			c-0.4,0-0.8,0.3-0.8,0.8L72,86c0,0.5-0.4,0.8-0.8,0.8c-0.1,0-0.3,0-0.4-0.1c-1.2-0.8-2.6-1.2-4.2-1.2c-0.2,0-0.5,0-0.7,0
			c-3.5,0.3-6.5,3.2-6.8,6.7c-0.5,4.6,3.1,8.5,7.6,8.5c1.5,0,3-0.5,4.2-1.2c0.1-0.1,0.3-0.1,0.4-0.1c0.4,0,0.8,0.3,0.8,0.8l0,13.2
			c0,0.4,0.3,0.8,0.8,0.8l13.2,0c0.6,0,1-0.7,0.6-1.2c-0.9-1.4-1.4-3.1-1.2-4.9c0.3-3.5,3.2-6.5,6.7-6.8c0.3,0,0.6,0,0.9,0
			c4.2,0,7.6,3.4,7.6,7.6c0,1.5-0.5,3-1.2,4.2c-0.3,0.5,0,1.2,0.6,1.2h13.2c0.4,0,0.8-0.3,0.8-0.8l0-13.2c0-0.4,0.4-0.8,0.8-0.8
			c0.1,0,0.3,0,0.4,0.1c1.2,0.8,2.6,1.2,4.2,1.2c4.5,0,8.1-3.9,7.6-8.5c-0.4-3.5-3.3-6.4-6.8-6.7c-0.3,0-0.5,0-0.7,0
			c-1.5,0-3,0.5-4.2,1.2c-0.1,0.1-0.3,0.1-0.4,0.1c-0.4,0-0.8-0.3-0.8-0.8c0-3.3,0-10.8,0-13.2c0-0.4-0.3-0.8-0.8-0.8L100,72L100,72
			z"/>
	</g>
	<g>
		<path class="st8" d="M51,126.8c-0.3,0-0.6,0-0.8,0c-3.4-0.4-6.2-3.2-6.5-6.6c-0.2-1.7,0.2-3.3,1.2-4.7c0.2-0.3,0.2-0.7,0-1.1
			c-0.2-0.3-0.5-0.5-0.9-0.5H30.8c-0.3,0-0.5-0.2-0.5-0.5V100c0-0.3,0.3-0.5,0.5-0.5c0.1,0,0.2,0,0.3,0.1c1.3,0.8,2.8,1.3,4.3,1.3
			c2.2,0,4.4-1,5.9-2.6c1.5-1.7,2.2-3.9,2-6.2c-0.4-3.7-3.4-6.6-7.1-7c-0.3,0-0.5,0-0.8,0c-1.5,0-3,0.4-4.3,1.3
			c-0.1,0.1-0.2,0.1-0.3,0.1c-0.3,0-0.5-0.2-0.5-0.5V72.8c0-0.3,0.2-0.5,0.5-0.5H44c0.4,0,0.7-0.2,0.9-0.5c0.2-0.3,0.2-0.7,0-1.1
			c-0.9-1.4-1.3-3-1.2-4.7c0.3-3.5,3.1-6.2,6.5-6.6c0.3,0,0.6,0,0.8,0c4.1,0,7.4,3.3,7.4,7.4c0,1.4-0.4,2.8-1.2,4
			c-0.2,0.3-0.2,0.7,0,1s0.5,0.5,0.9,0.5h13.2c0.3,0,0.5,0.2,0.5,0.5V86c0,0.3-0.3,0.5-0.5,0.5c-0.1,0-0.2,0-0.3-0.1
			c-1.3-0.8-2.8-1.3-4.3-1.3c-2.2,0-4.4,1-5.9,2.6c-1.5,1.7-2.2,3.9-2,6.2c0.4,3.7,3.4,6.6,7.1,7c0.3,0,0.5,0,0.8,0
			c1.5,0,3-0.4,4.3-1.3c0.1-0.1,0.2-0.1,0.3-0.1c0.3,0,0.5,0.2,0.5,0.5v13.2c0,0.3-0.2,0.5-0.5,0.5H58c-0.4,0-0.7,0.2-0.9,0.5
			c-0.2,0.3-0.2,0.7,0,1c0.8,1.2,1.2,2.6,1.2,4C58.4,123.4,55.1,126.8,51,126.8z"/>
		<path class="st5" d="M51,59.5c3.9,0,7.1,3.2,7.1,7.1c0,1.4-0.4,2.7-1.2,3.9c-0.3,0.4-0.3,0.9-0.1,1.3c0.2,0.4,0.6,0.7,1.1,0.7
			l13.2,0c0.1,0,0.3,0.1,0.3,0.3l0,13.2c0,0.2-0.2,0.3-0.3,0.3c-0.1,0-0.1,0-0.2,0c-1.3-0.9-2.9-1.3-4.4-1.3c-2.3,0-4.5,1-6.1,2.7
			c-1.6,1.7-2.3,4-2,6.4c0.4,3.8,3.5,6.8,7.3,7.2c0.3,0,0.5,0,0.8,0c1.6,0,3.1-0.5,4.4-1.3c0.1,0,0.1,0,0.2,0c0.1,0,0.3,0.1,0.3,0.3
			l0,13.2c0,0.1-0.1,0.3-0.3,0.3l-13.2,0c-0.5,0-0.9,0.2-1.1,0.7c-0.2,0.4-0.2,0.9,0.1,1.3c0.8,1.2,1.2,2.5,1.2,3.9
			c0,3.9-3.2,7.1-7.1,7.1c-0.3,0-0.5,0-0.8,0c-3.3-0.4-6-3.1-6.3-6.4c-0.2-1.6,0.2-3.2,1.1-4.6c0.3-0.4,0.3-0.9,0.1-1.3
			c-0.2-0.4-0.6-0.7-1.1-0.7l-13.2,0c-0.1,0-0.3-0.1-0.3-0.3V100c0-0.1,0-0.1,0.1-0.2c0,0,0.1-0.1,0.2-0.1c0.1,0,0.1,0,0.2,0
			c1.3,0.9,2.9,1.3,4.4,1.3c2.3,0,4.5-1,6.1-2.7c1.6-1.7,2.3-4,2-6.4c-0.4-3.8-3.5-6.8-7.3-7.2c-0.3,0-0.5,0-0.8,0
			c-1.6,0-3.1,0.5-4.4,1.3c-0.1,0-0.1,0-0.2,0c-0.1,0-0.3-0.1-0.3-0.3l0-13.2c0-0.1,0.1-0.3,0.3-0.3l13.2,0c0.5,0,0.9-0.2,1.1-0.7
			c0.2-0.4,0.2-0.9-0.1-1.3c-0.9-1.4-1.3-2.9-1.1-4.6c0.3-3.3,3-6,6.3-6.4C50.5,59.5,50.7,59.5,51,59.5 M51,59c-0.3,0-0.6,0-0.9,0
			c-3.5,0.4-6.4,3.3-6.7,6.8c-0.2,1.8,0.3,3.5,1.2,4.9c0.3,0.5,0,1.2-0.6,1.2c-3.3,0-10.8,0-13.2,0c-0.4,0-0.8,0.3-0.8,0.8L30,86
			c0,0.5,0.4,0.8,0.8,0.8c0.1,0,0.3,0,0.4-0.1c1.2-0.8,2.6-1.2,4.2-1.2c0.2,0,0.5,0,0.7,0c3.5,0.3,6.5,3.2,6.8,6.7
			c0.5,4.6-3.1,8.5-7.6,8.5c-1.5,0-3-0.5-4.2-1.2c-0.1-0.1-0.3-0.1-0.4-0.1c-0.4,0-0.8,0.3-0.8,0.8v13.2c0,0.4,0.3,0.8,0.8,0.8
			l13.2,0c0.6,0,1,0.7,0.6,1.2c-0.9,1.4-1.4,3.1-1.2,4.9c0.3,3.5,3.2,6.5,6.7,6.8c0.3,0,0.6,0,0.9,0c4.2,0,7.6-3.4,7.6-7.6
			c0-1.5-0.5-3-1.2-4.2c-0.3-0.5,0-1.2,0.6-1.2l13.2,0c0.4,0,0.8-0.3,0.8-0.8l0-13.2c0-0.5-0.4-0.8-0.8-0.8c-0.1,0-0.3,0-0.4,0.1
			c-1.2,0.8-2.6,1.2-4.2,1.2c-0.2,0-0.5,0-0.7,0c-3.5-0.3-6.5-3.2-6.8-6.7c-0.5-4.6,3.1-8.5,7.6-8.5c1.5,0,3,0.5,4.2,1.2
			c0.1,0.1,0.3,0.1,0.4,0.1c0.4,0,0.8-0.3,0.8-0.8l0-13.2c0-0.4-0.3-0.8-0.8-0.8L58,72c-0.6,0-1-0.7-0.6-1.2
			c0.8-1.2,1.2-2.6,1.2-4.2C58.6,62.4,55.2,59,51,59L51,59z"/>
	</g>
	<g>
		<path class="st8" d="M93,84.7c-0.3,0-0.6,0-0.8,0c-3.4-0.4-6.2-3.2-6.5-6.6c-0.2-1.7,0.2-3.3,1.2-4.7c0.2-0.3,0.2-0.7,0-1.1
			c-0.2-0.3-0.5-0.5-0.9-0.5H72.8c-0.3,0-0.5-0.2-0.5-0.5V58c0-0.3,0.3-0.5,0.5-0.5c0.1,0,0.2,0,0.3,0.1c1.3,0.8,2.8,1.3,4.3,1.3
			c2.2,0,4.4-1,5.9-2.6c1.5-1.7,2.2-3.9,2-6.2c-0.4-3.7-3.4-6.6-7.1-7c-0.3,0-0.5,0-0.8,0c-1.5,0-3,0.4-4.3,1.3
			c-0.1,0.1-0.2,0.1-0.3,0.1c-0.3,0-0.5-0.2-0.5-0.5V30.8c0-0.3,0.2-0.5,0.5-0.5H86c0.4,0,0.7-0.2,0.9-0.5c0.2-0.3,0.2-0.7,0-1.1
			c-0.9-1.4-1.3-3-1.2-4.7c0.3-3.5,3.1-6.2,6.5-6.6c0.3,0,0.6,0,0.8,0c4.1,0,7.4,3.3,7.4,7.4c0,1.4-0.4,2.8-1.2,4
			c-0.2,0.3-0.2,0.7,0,1c0.2,0.3,0.5,0.5,0.9,0.5h13.2c0.3,0,0.5,0.2,0.5,0.5V44c0,0.3-0.3,0.5-0.5,0.5c-0.1,0-0.2,0-0.3-0.1
			c-1.3-0.8-2.8-1.3-4.3-1.3c-2.2,0-4.4,1-5.9,2.6c-1.5,1.7-2.2,3.9-2,6.2c0.4,3.7,3.4,6.6,7.1,7c0.3,0,0.5,0,0.8,0
			c1.5,0,3-0.4,4.3-1.3c0.1-0.1,0.2-0.1,0.3-0.1c0.3,0,0.5,0.2,0.5,0.5v13.2c0,0.3-0.2,0.5-0.5,0.5H100c-0.4,0-0.7,0.2-0.9,0.5
			c-0.2,0.3-0.2,0.7,0,1c0.8,1.2,1.2,2.6,1.2,4C100.4,81.4,97.1,84.7,93,84.7z"/>
		<path class="st5" d="M93,17.5c3.9,0,7.1,3.2,7.1,7.1c0,1.4-0.4,2.7-1.2,3.9c-0.3,0.4-0.3,0.9-0.1,1.3c0.2,0.4,0.6,0.7,1.1,0.7
			l13.2,0c0.1,0,0.3,0.1,0.3,0.3l0,13.2c0,0.2-0.2,0.3-0.3,0.3c-0.1,0-0.1,0-0.2,0c-1.3-0.9-2.9-1.3-4.4-1.3c-2.3,0-4.5,1-6.1,2.7
			c-1.6,1.7-2.3,4-2,6.4c0.4,3.8,3.5,6.8,7.3,7.2c0.3,0,0.5,0,0.8,0c1.6,0,3.1-0.5,4.4-1.3c0.1,0,0.1,0,0.2,0c0.1,0,0.3,0.1,0.3,0.3
			l0,13.2c0,0.1-0.1,0.3-0.3,0.3l-13.2,0c-0.5,0-0.9,0.2-1.1,0.7c-0.2,0.4-0.2,0.9,0.1,1.3c0.8,1.2,1.2,2.5,1.2,3.9
			c0,3.9-3.2,7.1-7.1,7.1c-0.3,0-0.5,0-0.8,0c-3.3-0.4-6-3.1-6.3-6.4c-0.2-1.6,0.2-3.2,1.1-4.6c0.3-0.4,0.3-0.9,0.1-1.3
			c-0.2-0.4-0.6-0.7-1.1-0.7l-13.2,0c-0.1,0-0.3-0.1-0.3-0.3V58c0-0.1,0-0.1,0.1-0.2c0,0,0.1-0.1,0.2-0.1c0.1,0,0.1,0,0.2,0
			c1.3,0.9,2.9,1.3,4.4,1.3c2.3,0,4.5-1,6.1-2.7c1.6-1.7,2.3-4,2-6.4c-0.4-3.8-3.5-6.8-7.3-7.2c-0.3,0-0.5,0-0.8,0
			c-1.6,0-3.1,0.5-4.4,1.3c-0.1,0-0.1,0-0.2,0c-0.1,0-0.3-0.1-0.3-0.3l0-13.2c0-0.1,0.1-0.3,0.3-0.3l13.2,0c0.5,0,0.9-0.2,1.1-0.7
			c0.2-0.4,0.2-0.9-0.1-1.3c-0.9-1.4-1.3-2.9-1.1-4.6c0.3-3.3,3-6,6.3-6.4C92.5,17.5,92.7,17.5,93,17.5 M93,17c-0.3,0-0.6,0-0.9,0
			c-3.5,0.4-6.4,3.3-6.7,6.8c-0.2,1.8,0.3,3.5,1.2,4.9c0.3,0.5,0,1.2-0.6,1.2c-3.3,0-10.8,0-13.2,0c-0.4,0-0.8,0.3-0.8,0.8L72,44
			c0,0.5,0.4,0.8,0.8,0.8c0.1,0,0.3,0,0.4-0.1c1.2-0.8,2.6-1.2,4.2-1.2c0.2,0,0.5,0,0.7,0c3.5,0.3,6.5,3.2,6.8,6.7
			c0.5,4.6-3.1,8.5-7.6,8.5c-1.5,0-3-0.5-4.2-1.2c-0.1-0.1-0.3-0.1-0.4-0.1c-0.4,0-0.8,0.3-0.8,0.8v13.2c0,0.4,0.3,0.8,0.8,0.8
			L86,72c0.6,0,1,0.7,0.6,1.2c-0.9,1.4-1.4,3.1-1.2,4.9c0.3,3.5,3.2,6.5,6.7,6.8c0.3,0,0.6,0,0.9,0c4.2,0,7.6-3.4,7.6-7.6
			c0-1.5-0.5-3-1.2-4.2c-0.3-0.5,0-1.2,0.6-1.2l13.2,0c0.4,0,0.8-0.3,0.8-0.8l0-13.2c0-0.5-0.4-0.8-0.8-0.8c-0.1,0-0.3,0-0.4,0.1
			c-1.2,0.8-2.6,1.2-4.2,1.2c-0.2,0-0.5,0-0.7,0c-3.5-0.3-6.5-3.2-6.8-6.7c-0.5-4.6,3.1-8.5,7.6-8.5c1.5,0,3,0.5,4.2,1.2
			c0.1,0.1,0.3,0.1,0.4,0.1c0.4,0,0.8-0.3,0.8-0.8l0-13.2c0-0.4-0.3-0.8-0.8-0.8L100,30c-0.6,0-1-0.7-0.6-1.2
			c0.8-1.2,1.2-2.6,1.2-4.2C100.6,20.4,97.2,17,93,17L93,17z"/>
	</g>
	<path class="st9" d="M60.9,70.5h8.9c0.4,0,0.8-0.3,0.8-0.8v-9.2"/>
	<line class="st9" x1="33" y1="70.5" x2="41.3" y2="70.5"/>
	<path class="st9" d="M70.5,42.4v-9.2"/>
	<path class="st9" d="M75.8,70.5h8.6"/>
	<line class="st9" x1="112.5" y1="40.3" x2="112.5" y2="33.1"/>
	<path class="st9" d="M101.5,70.5h10.2c0.4,0,0.8-0.3,0.8-0.8V63"/>
	<path class="st9" d="M33,111.7h8.6"/>
	<line class="st9" x1="69.7" y1="81.6" x2="69.7" y2="74.3"/>
	<path class="st9" d="M56.8,91.6c-0.5-4.6,3.1-8.5,7.6-8.5"/>
	<path class="st9" d="M58.8,111.7h10.2c0.4,0,0.8-0.3,0.8-0.8v-6.7"/>
	<path class="st9" d="M99.5,51c0-5.1,4.1-9.2,9.2-9.2"/>
	<path class="st9" d="M98.7,75.7c0.1,0.5,0.2,1.1,0.2,1.6c0,3.3-2.7,6-6,6c-1.6,0-3.1-0.7-4.2-1.7"/>
	<path class="st9" d="M87.5,27c-0.2-0.5-0.3-1-0.4-1.6c-0.4-3.3,2-6.2,5.3-6.6c1.6-0.2,3.2,0.3,4.4,1.3"/>
	<path class="st9" d="M56.5,117.5c0.1,0.5,0.2,1.1,0.2,1.6c0,3.3-2.7,6-6,6c-1.6,0-3.1-0.7-4.2-1.7"/>
	<path class="st9" d="M41.8,66.8c0-5.1,4.1-9.2,9.2-9.2"/>
	<path class="st9" d="M81.2,46.4c1.3,1.1,2.2,2.7,2.2,4.6c0,3.3-2.7,6-6,6c-1.2,0-2.2-0.3-3.2-0.9"/>
</g>
</svg>
