<?xml version="1.0" encoding="utf-8"?>
<!-- Generator: Adobe Illustrator 26.0.1, SVG Export Plug-In . SVG Version: 6.00 Build 0)  -->
<svg version="1.1" id="Layer_1" xmlns="http://www.w3.org/2000/svg" xmlns:xlink="http://www.w3.org/1999/xlink" x="0px" y="0px"
	 viewBox="0 0 185 220" style="enable-background:new 0 0 185 220;" xml:space="preserve">
<style type="text/css">
	.st0{fill:#818F7A;}
</style>
<g>
	<circle class="st0" cx="3.1" cy="3.1" r="1.9"/>
	<circle class="st0" cx="3.1" cy="3.1" r="1.9"/>
	<circle class="st0" cx="3.1" cy="3.1" r="1.9"/>
	<circle class="st0" cx="3.1" cy="3.1" r="1.9"/>
	<circle class="st0" cx="3.1" cy="3.1" r="1.9"/>
	<circle class="st0" cx="3.1" cy="3.1" r="1.9"/>
	<circle class="st0" cx="3.1" cy="3.1" r="1.9"/>
	<circle class="st0" cx="3.1" cy="3.1" r="1.9"/>
	<circle class="st0" cx="3.1" cy="3.1" r="1.9"/>
	<circle class="st0" cx="3.1" cy="3.1" r="1.9"/>
	<circle class="st0" cx="3.1" cy="3.1" r="1.9"/>
	<circle class="st0" cx="3.1" cy="3.1" r="1.9"/>
	<circle class="st0" cx="3.1" cy="3.1" r="1.9"/>
	<circle class="st0" cx="3.1" cy="3.1" r="1.9"/>
	<circle class="st0" cx="3.1" cy="3.1" r="1.9"/>
	<circle class="st0" cx="3.1" cy="3.1" r="1.9"/>
	<circle class="st0" cx="3.1" cy="3.1" r="1.9"/>
	<circle class="st0" cx="3.1" cy="3.1" r="1.9"/>
	<circle class="st0" cx="3.1" cy="3.1" r="1.9"/>
	<circle class="st0" cx="3.1" cy="3.1" r="1.9"/>
	<circle class="st0" cx="3.1" cy="3.1" r="1.9"/>
	<circle class="st0" cx="3.1" cy="3.1" r="1.9"/>
	<circle class="st0" cx="3.1" cy="3.1" r="1.9"/>
	<circle class="st0" cx="3.1" cy="3.1" r="1.9"/>
	<circle class="st0" cx="3.1" cy="3.1" r="1.9"/>
	<circle class="st0" cx="3.1" cy="3.1" r="1.9"/>
	<circle class="st0" cx="3.1" cy="3.1" r="1.9"/>
	<circle class="st0" cx="3.1" cy="3.1" r="1.9"/>
	<circle class="st0" cx="3.1" cy="3.1" r="1.9"/>
	<circle class="st0" cx="3.1" cy="3.1" r="1.9"/>
	<circle class="st0" cx="3.1" cy="3.1" r="1.9"/>
	<circle class="st0" cx="3.1" cy="3.1" r="1.9"/>
	<circle class="st0" cx="3.1" cy="3.1" r="1.9"/>
	<circle class="st0" cx="24.2" cy="3.1" r="1.9"/>
	<circle class="st0" cx="45.4" cy="3.1" r="1.9"/>
	<circle class="st0" cx="66.5" cy="3.1" r="1.9"/>
	<circle class="st0" cx="87.7" cy="3.1" r="1.9"/>
	<circle class="st0" cx="108.8" cy="3.1" r="1.9"/>
	<circle class="st0" cx="130" cy="3.1" r="1.9"/>
	<circle class="st0" cx="151.1" cy="3.1" r="1.9"/>
	<circle class="st0" cx="172.3" cy="3.1" r="1.9"/>
	<circle class="st0" cx="3.1" cy="24.2" r="1.9"/>
	<circle class="st0" cx="3.1" cy="24.2" r="1.9"/>
	<circle class="st0" cx="3.1" cy="24.2" r="1.9"/>
	<circle class="st0" cx="3.1" cy="24.2" r="1.9"/>
	<circle class="st0" cx="3.1" cy="24.2" r="1.9"/>
	<circle class="st0" cx="3.1" cy="24.2" r="1.9"/>
	<circle class="st0" cx="3.1" cy="24.2" r="1.9"/>
	<circle class="st0" cx="3.1" cy="24.2" r="1.9"/>
	<circle class="st0" cx="3.1" cy="24.2" r="1.9"/>
	<circle class="st0" cx="3.1" cy="24.2" r="1.9"/>
	<circle class="st0" cx="3.1" cy="24.2" r="1.9"/>
	<circle class="st0" cx="3.1" cy="24.2" r="1.9"/>
	<circle class="st0" cx="3.1" cy="24.2" r="1.9"/>
	<circle class="st0" cx="3.1" cy="24.2" r="1.9"/>
	<circle class="st0" cx="3.1" cy="24.2" r="1.9"/>
	<circle class="st0" cx="3.1" cy="24.2" r="1.9"/>
	<circle class="st0" cx="3.1" cy="24.2" r="1.9"/>
	<circle class="st0" cx="3.1" cy="24.2" r="1.9"/>
	<circle class="st0" cx="3.1" cy="24.2" r="1.9"/>
	<circle class="st0" cx="3.1" cy="24.2" r="1.9"/>
	<circle class="st0" cx="3.1" cy="24.2" r="1.9"/>
	<circle class="st0" cx="3.1" cy="24.2" r="1.9"/>
	<circle class="st0" cx="3.1" cy="24.2" r="1.9"/>
	<circle class="st0" cx="3.1" cy="24.2" r="1.9"/>
	<circle class="st0" cx="3.1" cy="24.2" r="1.9"/>
	<circle class="st0" cx="3.1" cy="24.2" r="1.9"/>
	<circle class="st0" cx="3.1" cy="24.2" r="1.9"/>
	<circle class="st0" cx="3.1" cy="24.2" r="1.9"/>
	<circle class="st0" cx="3.1" cy="24.2" r="1.9"/>
	<circle class="st0" cx="3.1" cy="24.2" r="1.9"/>
	<circle class="st0" cx="3.1" cy="24.2" r="1.9"/>
	<circle class="st0" cx="3.1" cy="24.2" r="1.9"/>
	<circle class="st0" cx="3.1" cy="24.2" r="1.9"/>
	<circle class="st0" cx="24.2" cy="24.2" r="1.9"/>
	<circle class="st0" cx="45.4" cy="24.2" r="1.9"/>
	<circle class="st0" cx="66.5" cy="24.2" r="1.9"/>
	<circle class="st0" cx="87.7" cy="24.2" r="1.9"/>
	<circle class="st0" cx="108.8" cy="24.2" r="1.9"/>
	<circle class="st0" cx="130" cy="24.2" r="1.9"/>
	<circle class="st0" cx="151.1" cy="24.2" r="1.9"/>
	<circle class="st0" cx="172.3" cy="24.2" r="1.9"/>
	<circle class="st0" cx="3.1" cy="45.4" r="1.9"/>
	<circle class="st0" cx="3.1" cy="45.4" r="1.9"/>
	<circle class="st0" cx="3.1" cy="45.4" r="1.9"/>
	<circle class="st0" cx="3.1" cy="45.4" r="1.9"/>
	<circle class="st0" cx="3.1" cy="45.4" r="1.9"/>
	<circle class="st0" cx="3.1" cy="45.4" r="1.9"/>
	<circle class="st0" cx="3.1" cy="45.4" r="1.9"/>
	<circle class="st0" cx="3.1" cy="45.4" r="1.9"/>
	<circle class="st0" cx="3.1" cy="45.4" r="1.9"/>
	<circle class="st0" cx="3.1" cy="45.4" r="1.9"/>
	<circle class="st0" cx="3.1" cy="45.4" r="1.9"/>
	<circle class="st0" cx="3.1" cy="45.4" r="1.9"/>
	<circle class="st0" cx="3.1" cy="45.4" r="1.9"/>
	<circle class="st0" cx="3.1" cy="45.4" r="1.9"/>
	<circle class="st0" cx="3.1" cy="45.4" r="1.9"/>
	<circle class="st0" cx="3.1" cy="45.4" r="1.9"/>
	<circle class="st0" cx="3.1" cy="45.4" r="1.9"/>
	<circle class="st0" cx="3.1" cy="45.4" r="1.9"/>
	<circle class="st0" cx="3.1" cy="45.4" r="1.9"/>
	<circle class="st0" cx="3.1" cy="45.4" r="1.9"/>
	<circle class="st0" cx="3.1" cy="45.4" r="1.9"/>
	<circle class="st0" cx="3.1" cy="45.4" r="1.9"/>
	<circle class="st0" cx="3.1" cy="45.4" r="1.9"/>
	<circle class="st0" cx="3.1" cy="45.4" r="1.9"/>
	<circle class="st0" cx="3.1" cy="45.4" r="1.9"/>
	<circle class="st0" cx="3.1" cy="45.4" r="1.9"/>
	<circle class="st0" cx="3.1" cy="45.4" r="1.9"/>
	<circle class="st0" cx="3.1" cy="45.4" r="1.9"/>
	<circle class="st0" cx="3.1" cy="45.4" r="1.9"/>
	<circle class="st0" cx="3.1" cy="45.4" r="1.9"/>
	<circle class="st0" cx="3.1" cy="45.4" r="1.9"/>
	<circle class="st0" cx="3.1" cy="45.4" r="1.9"/>
	<circle class="st0" cx="3.1" cy="45.4" r="1.9"/>
	<circle class="st0" cx="24.2" cy="45.4" r="1.9"/>
	<circle class="st0" cx="45.4" cy="45.4" r="1.9"/>
	<circle class="st0" cx="66.5" cy="45.4" r="1.9"/>
	<circle class="st0" cx="87.7" cy="45.4" r="1.9"/>
	<circle class="st0" cx="108.8" cy="45.4" r="1.9"/>
	<circle class="st0" cx="130" cy="45.4" r="1.9"/>
	<circle class="st0" cx="151.1" cy="45.4" r="1.9"/>
	<circle class="st0" cx="172.3" cy="45.4" r="1.9"/>
	<circle class="st0" cx="3.1" cy="66.5" r="1.9"/>
	<circle class="st0" cx="3.1" cy="66.5" r="1.9"/>
	<circle class="st0" cx="3.1" cy="66.5" r="1.9"/>
	<circle class="st0" cx="3.1" cy="66.5" r="1.9"/>
	<circle class="st0" cx="3.1" cy="66.5" r="1.9"/>
	<circle class="st0" cx="3.1" cy="66.5" r="1.9"/>
	<circle class="st0" cx="3.1" cy="66.5" r="1.9"/>
	<circle class="st0" cx="3.1" cy="66.5" r="1.9"/>
	<circle class="st0" cx="3.1" cy="66.5" r="1.9"/>
	<circle class="st0" cx="3.1" cy="66.5" r="1.9"/>
	<circle class="st0" cx="3.1" cy="66.5" r="1.9"/>
	<circle class="st0" cx="3.1" cy="66.5" r="1.9"/>
	<circle class="st0" cx="3.1" cy="66.5" r="1.9"/>
	<circle class="st0" cx="3.1" cy="66.5" r="1.9"/>
	<circle class="st0" cx="3.1" cy="66.5" r="1.9"/>
	<circle class="st0" cx="3.1" cy="66.5" r="1.9"/>
	<circle class="st0" cx="3.1" cy="66.5" r="1.9"/>
	<circle class="st0" cx="3.1" cy="66.5" r="1.9"/>
	<circle class="st0" cx="3.1" cy="66.5" r="1.9"/>
	<circle class="st0" cx="3.1" cy="66.5" r="1.9"/>
	<circle class="st0" cx="3.1" cy="66.5" r="1.9"/>
	<circle class="st0" cx="3.1" cy="66.5" r="1.9"/>
	<circle class="st0" cx="3.1" cy="66.5" r="1.9"/>
	<circle class="st0" cx="3.1" cy="66.5" r="1.9"/>
	<circle class="st0" cx="3.1" cy="66.5" r="1.9"/>
	<circle class="st0" cx="3.1" cy="66.5" r="1.9"/>
	<circle class="st0" cx="3.1" cy="66.5" r="1.9"/>
	<circle class="st0" cx="3.1" cy="66.5" r="1.9"/>
	<circle class="st0" cx="3.1" cy="66.5" r="1.9"/>
	<circle class="st0" cx="3.1" cy="66.5" r="1.9"/>
	<circle class="st0" cx="3.1" cy="66.5" r="1.9"/>
	<circle class="st0" cx="3.1" cy="66.5" r="1.9"/>
	<circle class="st0" cx="3.1" cy="66.5" r="1.9"/>
	<circle class="st0" cx="24.2" cy="66.5" r="1.9"/>
	<circle class="st0" cx="45.4" cy="66.5" r="1.9"/>
	<circle class="st0" cx="66.5" cy="66.5" r="1.9"/>
	<circle class="st0" cx="87.7" cy="66.5" r="1.9"/>
	<circle class="st0" cx="108.8" cy="66.5" r="1.9"/>
	<circle class="st0" cx="130" cy="66.5" r="1.9"/>
	<circle class="st0" cx="151.1" cy="66.5" r="1.9"/>
	<circle class="st0" cx="172.3" cy="66.5" r="1.9"/>
	<circle class="st0" cx="3.1" cy="87.7" r="1.9"/>
	<circle class="st0" cx="3.1" cy="87.7" r="1.9"/>
	<circle class="st0" cx="3.1" cy="87.7" r="1.9"/>
	<circle class="st0" cx="3.1" cy="87.7" r="1.9"/>
	<circle class="st0" cx="3.1" cy="87.7" r="1.9"/>
	<circle class="st0" cx="3.1" cy="87.7" r="1.9"/>
	<circle class="st0" cx="3.1" cy="87.7" r="1.9"/>
	<circle class="st0" cx="3.1" cy="87.7" r="1.9"/>
	<circle class="st0" cx="3.1" cy="87.7" r="1.9"/>
	<circle class="st0" cx="3.1" cy="87.7" r="1.9"/>
	<circle class="st0" cx="3.1" cy="87.7" r="1.9"/>
	<circle class="st0" cx="3.1" cy="87.7" r="1.9"/>
	<circle class="st0" cx="3.1" cy="87.7" r="1.9"/>
	<circle class="st0" cx="3.1" cy="87.7" r="1.9"/>
	<circle class="st0" cx="3.1" cy="87.7" r="1.9"/>
	<circle class="st0" cx="3.1" cy="87.7" r="1.9"/>
	<circle class="st0" cx="3.1" cy="87.7" r="1.9"/>
	<circle class="st0" cx="3.1" cy="87.7" r="1.9"/>
	<circle class="st0" cx="3.1" cy="87.7" r="1.9"/>
	<circle class="st0" cx="3.1" cy="87.7" r="1.9"/>
	<circle class="st0" cx="3.1" cy="87.7" r="1.9"/>
	<circle class="st0" cx="3.1" cy="87.7" r="1.9"/>
	<circle class="st0" cx="3.1" cy="87.7" r="1.9"/>
	<circle class="st0" cx="3.1" cy="87.7" r="1.9"/>
	<circle class="st0" cx="3.1" cy="87.7" r="1.9"/>
	<circle class="st0" cx="3.1" cy="87.7" r="1.9"/>
	<circle class="st0" cx="3.1" cy="87.7" r="1.9"/>
	<circle class="st0" cx="3.1" cy="87.7" r="1.9"/>
	<circle class="st0" cx="3.1" cy="87.7" r="1.9"/>
	<circle class="st0" cx="3.1" cy="87.7" r="1.9"/>
	<circle class="st0" cx="3.1" cy="87.7" r="1.9"/>
	<circle class="st0" cx="3.1" cy="87.7" r="1.9"/>
	<circle class="st0" cx="3.1" cy="87.7" r="1.9"/>
	<circle class="st0" cx="24.2" cy="87.7" r="1.9"/>
	<circle class="st0" cx="45.4" cy="87.7" r="1.9"/>
	<circle class="st0" cx="66.5" cy="87.7" r="1.9"/>
	<circle class="st0" cx="87.7" cy="87.7" r="1.9"/>
	<circle class="st0" cx="108.8" cy="87.7" r="1.9"/>
	<circle class="st0" cx="130" cy="87.7" r="1.9"/>
	<circle class="st0" cx="151.1" cy="87.7" r="1.9"/>
	<circle class="st0" cx="172.3" cy="87.7" r="1.9"/>
	<circle class="st0" cx="3.1" cy="108.8" r="1.9"/>
	<circle class="st0" cx="3.1" cy="108.8" r="1.9"/>
	<circle class="st0" cx="3.1" cy="108.8" r="1.9"/>
	<circle class="st0" cx="3.1" cy="108.8" r="1.9"/>
	<circle class="st0" cx="3.1" cy="108.8" r="1.9"/>
	<circle class="st0" cx="3.1" cy="108.8" r="1.9"/>
	<circle class="st0" cx="3.1" cy="108.8" r="1.9"/>
	<circle class="st0" cx="3.1" cy="108.8" r="1.9"/>
	<circle class="st0" cx="3.1" cy="108.8" r="1.9"/>
	<circle class="st0" cx="3.1" cy="108.8" r="1.9"/>
	<circle class="st0" cx="3.1" cy="108.8" r="1.9"/>
	<circle class="st0" cx="3.1" cy="108.8" r="1.9"/>
	<circle class="st0" cx="3.1" cy="108.8" r="1.9"/>
	<circle class="st0" cx="3.1" cy="108.8" r="1.9"/>
	<circle class="st0" cx="3.1" cy="108.8" r="1.9"/>
	<circle class="st0" cx="3.1" cy="108.8" r="1.9"/>
	<circle class="st0" cx="3.1" cy="108.8" r="1.9"/>
	<circle class="st0" cx="3.1" cy="108.8" r="1.9"/>
	<circle class="st0" cx="3.1" cy="108.8" r="1.9"/>
	<circle class="st0" cx="3.1" cy="108.8" r="1.9"/>
	<circle class="st0" cx="3.1" cy="108.8" r="1.9"/>
	<circle class="st0" cx="3.1" cy="108.8" r="1.9"/>
	<circle class="st0" cx="3.1" cy="108.8" r="1.9"/>
	<circle class="st0" cx="3.1" cy="108.8" r="1.9"/>
	<circle class="st0" cx="3.1" cy="108.8" r="1.9"/>
	<circle class="st0" cx="3.1" cy="108.8" r="1.9"/>
	<circle class="st0" cx="3.1" cy="108.8" r="1.9"/>
	<circle class="st0" cx="3.1" cy="108.8" r="1.9"/>
	<circle class="st0" cx="3.1" cy="108.8" r="1.9"/>
	<circle class="st0" cx="3.1" cy="108.8" r="1.9"/>
	<circle class="st0" cx="3.1" cy="108.8" r="1.9"/>
	<circle class="st0" cx="3.1" cy="108.8" r="1.9"/>
	<circle class="st0" cx="3.1" cy="108.8" r="1.9"/>
	<circle class="st0" cx="24.2" cy="108.8" r="1.9"/>
	<circle class="st0" cx="45.4" cy="108.8" r="1.9"/>
	<circle class="st0" cx="66.5" cy="108.8" r="1.9"/>
	<circle class="st0" cx="87.7" cy="108.8" r="1.9"/>
	<circle class="st0" cx="108.8" cy="108.8" r="1.9"/>
	<circle class="st0" cx="130" cy="108.8" r="1.9"/>
	<circle class="st0" cx="151.1" cy="108.8" r="1.9"/>
	<circle class="st0" cx="172.3" cy="108.8" r="1.9"/>
	<circle class="st0" cx="3.1" cy="130" r="1.9"/>
	<circle class="st0" cx="3.1" cy="130" r="1.9"/>
	<circle class="st0" cx="3.1" cy="130" r="1.9"/>
	<circle class="st0" cx="3.1" cy="130" r="1.9"/>
	<circle class="st0" cx="3.1" cy="130" r="1.9"/>
	<circle class="st0" cx="3.1" cy="130" r="1.9"/>
	<circle class="st0" cx="3.1" cy="130" r="1.9"/>
	<circle class="st0" cx="3.1" cy="130" r="1.9"/>
	<circle class="st0" cx="3.1" cy="130" r="1.9"/>
	<circle class="st0" cx="3.1" cy="130" r="1.9"/>
	<circle class="st0" cx="3.1" cy="130" r="1.9"/>
	<circle class="st0" cx="3.1" cy="130" r="1.9"/>
	<circle class="st0" cx="3.1" cy="130" r="1.9"/>
	<circle class="st0" cx="3.1" cy="130" r="1.9"/>
	<circle class="st0" cx="3.1" cy="130" r="1.9"/>
	<circle class="st0" cx="3.1" cy="130" r="1.9"/>
	<circle class="st0" cx="3.1" cy="130" r="1.9"/>
	<circle class="st0" cx="3.1" cy="130" r="1.9"/>
	<circle class="st0" cx="3.1" cy="130" r="1.9"/>
	<circle class="st0" cx="3.1" cy="130" r="1.9"/>
	<circle class="st0" cx="3.1" cy="130" r="1.9"/>
	<circle class="st0" cx="3.1" cy="130" r="1.9"/>
	<circle class="st0" cx="3.1" cy="130" r="1.9"/>
	<circle class="st0" cx="3.1" cy="130" r="1.9"/>
	<circle class="st0" cx="3.1" cy="130" r="1.9"/>
	<circle class="st0" cx="3.1" cy="130" r="1.9"/>
	<circle class="st0" cx="3.1" cy="130" r="1.9"/>
	<circle class="st0" cx="3.1" cy="130" r="1.9"/>
	<circle class="st0" cx="3.1" cy="130" r="1.9"/>
	<circle class="st0" cx="3.1" cy="130" r="1.9"/>
	<circle class="st0" cx="3.1" cy="130" r="1.9"/>
	<circle class="st0" cx="3.1" cy="130" r="1.9"/>
	<circle class="st0" cx="3.1" cy="130" r="1.9"/>
	<circle class="st0" cx="24.2" cy="130" r="1.9"/>
	<circle class="st0" cx="45.4" cy="130" r="1.9"/>
	<circle class="st0" cx="66.5" cy="130" r="1.9"/>
	<circle class="st0" cx="87.7" cy="130" r="1.9"/>
	<circle class="st0" cx="108.8" cy="130" r="1.9"/>
	<circle class="st0" cx="130" cy="130" r="1.9"/>
	<circle class="st0" cx="151.1" cy="130" r="1.9"/>
	<circle class="st0" cx="172.3" cy="130" r="1.9"/>
	<circle class="st0" cx="3.1" cy="151.1" r="1.9"/>
	<circle class="st0" cx="3.1" cy="151.1" r="1.9"/>
	<circle class="st0" cx="3.1" cy="151.1" r="1.9"/>
	<circle class="st0" cx="3.1" cy="151.1" r="1.9"/>
	<circle class="st0" cx="3.1" cy="151.1" r="1.9"/>
	<circle class="st0" cx="3.1" cy="151.1" r="1.9"/>
	<circle class="st0" cx="3.1" cy="151.1" r="1.9"/>
	<circle class="st0" cx="3.1" cy="151.1" r="1.9"/>
	<circle class="st0" cx="3.1" cy="151.1" r="1.9"/>
	<circle class="st0" cx="3.1" cy="151.1" r="1.9"/>
	<circle class="st0" cx="3.1" cy="151.1" r="1.9"/>
	<circle class="st0" cx="3.1" cy="151.1" r="1.9"/>
	<circle class="st0" cx="3.1" cy="151.1" r="1.9"/>
	<circle class="st0" cx="3.1" cy="151.1" r="1.9"/>
	<circle class="st0" cx="3.1" cy="151.1" r="1.9"/>
	<circle class="st0" cx="3.1" cy="151.1" r="1.9"/>
	<circle class="st0" cx="3.1" cy="151.1" r="1.9"/>
	<circle class="st0" cx="3.1" cy="151.1" r="1.9"/>
	<circle class="st0" cx="3.1" cy="151.1" r="1.9"/>
	<circle class="st0" cx="3.1" cy="151.1" r="1.9"/>
	<circle class="st0" cx="3.1" cy="151.1" r="1.9"/>
	<circle class="st0" cx="3.1" cy="151.1" r="1.9"/>
	<circle class="st0" cx="3.1" cy="151.1" r="1.9"/>
	<circle class="st0" cx="3.1" cy="151.1" r="1.9"/>
	<circle class="st0" cx="3.1" cy="151.1" r="1.9"/>
	<circle class="st0" cx="3.1" cy="151.1" r="1.9"/>
	<circle class="st0" cx="3.1" cy="151.1" r="1.9"/>
	<circle class="st0" cx="3.1" cy="151.1" r="1.9"/>
	<circle class="st0" cx="3.1" cy="151.1" r="1.9"/>
	<circle class="st0" cx="3.1" cy="151.1" r="1.9"/>
	<circle class="st0" cx="3.1" cy="151.1" r="1.9"/>
	<circle class="st0" cx="3.1" cy="151.1" r="1.9"/>
	<circle class="st0" cx="3.1" cy="151.1" r="1.9"/>
	<circle class="st0" cx="24.2" cy="151.1" r="1.9"/>
	<circle class="st0" cx="45.4" cy="151.1" r="1.9"/>
	<circle class="st0" cx="66.5" cy="151.1" r="1.9"/>
	<circle class="st0" cx="87.7" cy="151.1" r="1.9"/>
	<circle class="st0" cx="108.8" cy="151.1" r="1.9"/>
	<circle class="st0" cx="130" cy="151.1" r="1.9"/>
	<circle class="st0" cx="151.1" cy="151.1" r="1.9"/>
	<circle class="st0" cx="172.3" cy="151.1" r="1.9"/>
	<circle class="st0" cx="3.1" cy="172.3" r="1.9"/>
	<circle class="st0" cx="3.1" cy="172.3" r="1.9"/>
	<circle class="st0" cx="3.1" cy="172.3" r="1.9"/>
	<circle class="st0" cx="3.1" cy="172.3" r="1.9"/>
	<circle class="st0" cx="3.1" cy="172.3" r="1.9"/>
	<circle class="st0" cx="3.1" cy="172.3" r="1.9"/>
	<circle class="st0" cx="3.1" cy="172.3" r="1.9"/>
	<circle class="st0" cx="3.1" cy="172.3" r="1.9"/>
	<circle class="st0" cx="3.1" cy="172.3" r="1.9"/>
	<circle class="st0" cx="3.1" cy="172.3" r="1.9"/>
	<circle class="st0" cx="3.1" cy="172.3" r="1.9"/>
	<circle class="st0" cx="3.1" cy="172.3" r="1.9"/>
	<circle class="st0" cx="3.1" cy="172.3" r="1.9"/>
	<circle class="st0" cx="3.1" cy="172.3" r="1.9"/>
	<circle class="st0" cx="3.1" cy="172.3" r="1.9"/>
	<circle class="st0" cx="3.1" cy="172.3" r="1.9"/>
	<circle class="st0" cx="3.1" cy="172.3" r="1.9"/>
	<circle class="st0" cx="3.1" cy="172.3" r="1.9"/>
	<circle class="st0" cx="3.1" cy="172.3" r="1.9"/>
	<circle class="st0" cx="3.1" cy="172.3" r="1.9"/>
	<circle class="st0" cx="3.1" cy="172.3" r="1.9"/>
	<circle class="st0" cx="3.1" cy="172.3" r="1.9"/>
	<circle class="st0" cx="3.1" cy="172.3" r="1.9"/>
	<circle class="st0" cx="3.1" cy="172.3" r="1.9"/>
	<circle class="st0" cx="3.1" cy="172.3" r="1.9"/>
	<circle class="st0" cx="3.1" cy="172.3" r="1.9"/>
	<circle class="st0" cx="3.1" cy="172.3" r="1.9"/>
	<circle class="st0" cx="3.1" cy="172.3" r="1.9"/>
	<circle class="st0" cx="3.1" cy="172.3" r="1.9"/>
	<circle class="st0" cx="3.1" cy="172.3" r="1.9"/>
	<circle class="st0" cx="3.1" cy="172.3" r="1.9"/>
	<circle class="st0" cx="3.1" cy="172.3" r="1.9"/>
	<circle class="st0" cx="3.1" cy="172.3" r="1.9"/>
	<circle class="st0" cx="24.2" cy="172.3" r="1.9"/>
	<circle class="st0" cx="45.4" cy="172.3" r="1.9"/>
	<circle class="st0" cx="66.5" cy="172.3" r="1.9"/>
	<circle class="st0" cx="87.7" cy="172.3" r="1.9"/>
	<circle class="st0" cx="108.8" cy="172.3" r="1.9"/>
	<circle class="st0" cx="130" cy="172.3" r="1.9"/>
	<circle class="st0" cx="151.1" cy="172.3" r="1.9"/>
	<circle class="st0" cx="172.3" cy="172.3" r="1.9"/>
	<circle class="st0" cx="3.1" cy="193.4" r="1.9"/>
	<circle class="st0" cx="3.1" cy="193.4" r="1.9"/>
	<circle class="st0" cx="3.1" cy="193.4" r="1.9"/>
	<circle class="st0" cx="3.1" cy="193.4" r="1.9"/>
	<circle class="st0" cx="3.1" cy="193.4" r="1.9"/>
	<circle class="st0" cx="3.1" cy="193.4" r="1.9"/>
	<circle class="st0" cx="3.1" cy="193.4" r="1.9"/>
	<circle class="st0" cx="3.1" cy="193.4" r="1.9"/>
	<circle class="st0" cx="3.1" cy="193.4" r="1.9"/>
	<circle class="st0" cx="3.1" cy="193.4" r="1.9"/>
	<circle class="st0" cx="3.1" cy="193.4" r="1.9"/>
	<circle class="st0" cx="3.1" cy="193.4" r="1.9"/>
	<circle class="st0" cx="3.1" cy="193.4" r="1.9"/>
	<circle class="st0" cx="3.1" cy="193.4" r="1.9"/>
	<circle class="st0" cx="3.1" cy="193.4" r="1.9"/>
	<circle class="st0" cx="3.1" cy="193.4" r="1.9"/>
	<circle class="st0" cx="3.1" cy="193.4" r="1.9"/>
	<circle class="st0" cx="3.1" cy="193.4" r="1.9"/>
	<circle class="st0" cx="3.1" cy="193.4" r="1.9"/>
	<circle class="st0" cx="3.1" cy="193.4" r="1.9"/>
	<circle class="st0" cx="3.1" cy="193.4" r="1.9"/>
	<circle class="st0" cx="3.1" cy="193.4" r="1.9"/>
	<circle class="st0" cx="3.1" cy="193.4" r="1.9"/>
	<circle class="st0" cx="3.1" cy="193.4" r="1.9"/>
	<circle class="st0" cx="3.1" cy="193.4" r="1.9"/>
	<circle class="st0" cx="3.1" cy="193.4" r="1.9"/>
	<circle class="st0" cx="3.1" cy="193.4" r="1.9"/>
	<circle class="st0" cx="3.1" cy="193.4" r="1.9"/>
	<circle class="st0" cx="3.1" cy="193.4" r="1.9"/>
	<circle class="st0" cx="3.1" cy="193.4" r="1.9"/>
	<circle class="st0" cx="3.1" cy="193.4" r="1.9"/>
	<circle class="st0" cx="3.1" cy="193.4" r="1.9"/>
	<circle class="st0" cx="3.1" cy="193.4" r="1.9"/>
	<circle class="st0" cx="24.2" cy="193.4" r="1.9"/>
	<circle class="st0" cx="45.4" cy="193.4" r="1.9"/>
	<circle class="st0" cx="66.5" cy="193.4" r="1.9"/>
	<circle class="st0" cx="87.7" cy="193.4" r="1.9"/>
	<circle class="st0" cx="108.8" cy="193.4" r="1.9"/>
	<circle class="st0" cx="130" cy="193.4" r="1.9"/>
	<circle class="st0" cx="151.1" cy="193.4" r="1.9"/>
	<circle class="st0" cx="172.3" cy="193.4" r="1.9"/>
	<circle class="st0" cx="3.1" cy="214.6" r="1.9"/>
	<circle class="st0" cx="3.1" cy="214.6" r="1.9"/>
	<circle class="st0" cx="3.1" cy="214.6" r="1.9"/>
	<circle class="st0" cx="3.1" cy="214.6" r="1.9"/>
	<circle class="st0" cx="3.1" cy="214.6" r="1.9"/>
	<circle class="st0" cx="3.1" cy="214.6" r="1.9"/>
	<circle class="st0" cx="3.1" cy="214.6" r="1.9"/>
	<circle class="st0" cx="3.1" cy="214.6" r="1.9"/>
	<circle class="st0" cx="3.1" cy="214.6" r="1.9"/>
	<circle class="st0" cx="3.1" cy="214.6" r="1.9"/>
	<circle class="st0" cx="3.1" cy="214.6" r="1.9"/>
	<circle class="st0" cx="3.1" cy="214.6" r="1.9"/>
	<circle class="st0" cx="3.1" cy="214.6" r="1.9"/>
	<circle class="st0" cx="3.1" cy="214.6" r="1.9"/>
	<circle class="st0" cx="3.1" cy="214.6" r="1.9"/>
	<circle class="st0" cx="3.1" cy="214.6" r="1.9"/>
	<circle class="st0" cx="3.1" cy="214.6" r="1.9"/>
	<circle class="st0" cx="3.1" cy="214.6" r="1.9"/>
	<circle class="st0" cx="3.1" cy="214.6" r="1.9"/>
	<circle class="st0" cx="3.1" cy="214.6" r="1.9"/>
	<circle class="st0" cx="3.1" cy="214.6" r="1.9"/>
	<circle class="st0" cx="3.1" cy="214.6" r="1.9"/>
	<circle class="st0" cx="3.1" cy="214.6" r="1.9"/>
	<circle class="st0" cx="3.1" cy="214.6" r="1.9"/>
	<circle class="st0" cx="3.1" cy="214.6" r="1.9"/>
	<circle class="st0" cx="3.1" cy="214.6" r="1.9"/>
	<circle class="st0" cx="3.1" cy="214.6" r="1.9"/>
	<circle class="st0" cx="3.1" cy="214.6" r="1.9"/>
	<circle class="st0" cx="3.1" cy="214.6" r="1.9"/>
	<circle class="st0" cx="3.1" cy="214.6" r="1.9"/>
	<circle class="st0" cx="3.1" cy="214.6" r="1.9"/>
	<circle class="st0" cx="3.1" cy="214.6" r="1.9"/>
	<circle class="st0" cx="3.1" cy="214.6" r="1.9"/>
	<circle class="st0" cx="24.2" cy="214.6" r="1.9"/>
	<circle class="st0" cx="45.4" cy="214.6" r="1.9"/>
	<circle class="st0" cx="66.5" cy="214.6" r="1.9"/>
	<circle class="st0" cx="87.7" cy="214.6" r="1.9"/>
	<circle class="st0" cx="108.8" cy="214.6" r="1.9"/>
	<circle class="st0" cx="130" cy="214.6" r="1.9"/>
	<circle class="st0" cx="151.1" cy="214.6" r="1.9"/>
	<circle class="st0" cx="172.3" cy="214.6" r="1.9"/>
</g>
</svg>
