<?xml version="1.0" encoding="utf-8"?>
<!-- Generator: Adobe Illustrator 26.0.1, SVG Export Plug-In . SVG Version: 6.00 Build 0)  -->
<svg version="1.1" id="Layer_1" xmlns="http://www.w3.org/2000/svg" xmlns:xlink="http://www.w3.org/1999/xlink" x="0px" y="0px"
	 viewBox="0 0 250 10" style="enable-background:new 0 0 250 10;" xml:space="preserve">
<style type="text/css">
	.st0{fill:#453A51;}
	.st1{fill:#818F7A;}
	.st2{fill:#7E7785;}
	.st3{opacity:0.35;fill:#818F7A;}
</style>
<rect x="121.5" y="-60.1" class="st0" width="11" height="11"/>
<rect x="135" y="-60.1" class="st1" width="11" height="11"/>
<rect x="121.5" y="-47.6" class="st2" width="11" height="11"/>
<g>
	<g>
		<polygon class="st3" points="117,10 112.1,5 117,0 122,5 		"/>
		<polygon class="st3" points="122.3,10 117.4,5 122.3,0 127.3,5 		"/>
		<polygon class="st3" points="127.7,10 122.7,5 127.7,0 132.6,5 		"/>
		<polygon class="st3" points="133,10 128,5 133,0 137.9,5 		"/>
	</g>
	<g>
		<g>
			<path class="st2" d="M108,5.1C76.9,6,31.5,5.1,0,5.1c0,0,0-0.1,0-0.1C31.7,5,77,3.8,108,5.1L108,5.1z"/>
		</g>
		<g>
			<path class="st2" d="M142,4.9c31.1-1,76.4-0.1,108,0c0,0,0,0.1,0,0.1C218.3,5,173,6.2,142,4.9L142,4.9z"/>
		</g>
	</g>
</g>
</svg>
